<svg width="60" height="72" viewBox="0 0 60 72" fill="none" xmlns="http://www.w3.org/2000/svg">
<path fill-rule="evenodd" clip-rule="evenodd" d="M29.1593 71.7396C23.6706 68.9017 16.456 64.8332 10.5992 59.9164C4.59419 54.8756 0 48.9261 0 42.4207V8.93766L0.679984 8.65439C10.6109 4.51749 16.1133 3.2126 28.8207 0.199412L29.6627 0L30.5047 0.199412C43.2121 3.2126 48.7145 4.51749 58.6454 8.65439L59.3254 8.93766V42.4207C59.3254 48.9265 54.7316 54.8752 48.7262 59.9164C42.8698 64.8328 35.6552 68.9017 30.1661 71.7396L29.6623 72L29.1593 71.7396V71.7396ZM12.0108 58.2256C17.5394 62.8666 24.3485 66.7519 29.6627 69.5206C34.9773 66.7519 41.7859 62.8666 47.3146 58.2256C52.8711 53.5612 57.1218 48.1504 57.1218 42.4207V10.4086C47.7843 6.56377 42.2973 5.26188 30.0058 2.3476L29.6627 2.26623L29.3196 2.3476C17.0281 5.26188 11.5411 6.56377 2.20361 10.4086V42.4207C2.20361 48.1504 6.45428 53.5616 12.0108 58.2256V58.2256Z" fill="#234C9E"/>
<path fill-rule="evenodd" clip-rule="evenodd" d="M51.5168 31.1658C52.1252 31.1658 52.6187 31.6603 52.6187 32.27C52.6187 32.8796 52.1252 33.3741 51.5168 33.3741H7.80836C7.19998 33.3741 6.70654 32.8796 6.70654 32.27C6.70654 31.6603 7.19998 31.1658 7.80836 31.1658H51.5168Z" fill="#234C9E"/>
<path fill-rule="evenodd" clip-rule="evenodd" d="M13.9682 38.1981C14.0271 39.3872 14.1592 40.5335 14.3672 41.6362H21.5513C22.1592 41.6362 22.6524 42.1304 22.6524 42.7396C22.6524 43.3488 22.1592 43.843 21.5513 43.843H14.9024C15.2644 45.0494 15.7296 46.196 16.3005 47.281H32.3113C32.9192 47.281 33.4123 47.7752 33.4123 48.3844C33.4123 48.9936 32.9192 49.4878 32.3113 49.4878H17.6701C18.6229 50.7793 19.652 51.8885 20.8797 52.9259H28.5602C29.1681 52.9259 29.6613 53.42 29.6613 54.0292C29.6613 54.6384 29.1681 55.1326 28.5602 55.1326H23.9872C25.6569 56.1319 27.5469 57.0111 29.6635 57.7653C34.9924 55.8662 38.8823 53.1771 41.4519 49.7658C44.0659 46.2952 45.338 42.0441 45.3923 37.0861C45.3968 36.4791 45.8922 35.9911 46.4978 35.9956C47.1035 36.0002 47.5906 36.4966 47.5861 37.1035C47.5263 42.5453 46.1124 47.2346 43.2065 51.0931C40.3132 54.9348 35.9623 57.9231 30.0204 59.9769L29.6639 60.0999L29.3067 59.9769C23.3645 57.9231 19.0139 54.9348 16.1205 51.0931C13.2404 47.2684 11.8255 42.6272 11.7432 37.2466C11.7432 37.1963 11.7394 37.1451 11.7368 37.0948C11.7368 36.4856 12.23 35.9915 12.8379 35.9915H38.9742C39.5821 35.9915 40.0753 36.4856 40.0753 37.0948C40.0753 37.704 39.5821 38.1981 38.9742 38.1981H13.9682V38.1981Z" fill="#00A0D1"/>
<path fill-rule="evenodd" clip-rule="evenodd" d="M35.5401 19.5099C35.5401 20.1195 35.0466 20.614 34.4382 20.614C33.8299 20.614 33.3364 20.1195 33.3364 19.5099V10.4703C33.3364 9.86067 33.8299 9.36621 34.4382 9.36621C34.5527 9.36621 34.6631 9.38361 34.7668 9.41628C38.8859 10.548 42.4561 13.0174 44.9808 16.3298C47.4572 19.5788 48.9288 23.6364 48.9288 28.0353C48.9288 28.645 48.4353 29.1394 47.8269 29.1394C47.2186 29.1394 46.7252 28.645 46.7252 28.0353C46.7252 24.1342 45.4239 20.5401 43.2336 17.6667C41.2802 15.1042 38.6181 13.1108 35.5401 11.9796V19.5099V19.5099Z" fill="#234C9E"/>
<path fill-rule="evenodd" clip-rule="evenodd" d="M25.9888 19.5099C25.9888 20.1195 25.4954 20.614 24.887 20.614C24.2786 20.614 23.7852 20.1195 23.7852 19.5099V11.9796C20.7071 13.1108 18.045 15.1042 16.0916 17.6667C13.9014 20.5401 12.6001 24.1342 12.6001 28.0353C12.6001 28.645 12.1066 29.1394 11.4983 29.1394C10.8899 29.1394 10.3965 28.645 10.3965 28.0353C10.3965 23.6364 11.868 19.5788 14.3444 16.3298C16.8691 13.0174 20.4394 10.548 24.5584 9.41628C24.6621 9.38374 24.7725 9.36621 24.887 9.36621C25.4954 9.36621 25.9888 9.86067 25.9888 10.4703V19.5099Z" fill="#234C9E"/>
<path fill-rule="evenodd" clip-rule="evenodd" d="M29.6627 8.65137C30.3735 8.65137 30.9494 9.22846 30.9494 9.94076C30.9494 10.6531 30.3735 11.2306 29.6627 11.2306C28.9518 11.2306 28.376 10.6531 28.376 9.94076C28.376 9.22846 28.9518 8.65137 29.6627 8.65137Z" fill="#234C9E"/>
<path fill-rule="evenodd" clip-rule="evenodd" d="M29.6627 14.2534C30.3735 14.2534 30.9494 14.8306 30.9494 15.5429C30.9494 16.2552 30.3735 16.8327 29.6627 16.8327C28.9518 16.8327 28.376 16.2552 28.376 15.5429C28.376 14.8306 28.9518 14.2534 29.6627 14.2534Z" fill="#234C9E"/>
<path fill-rule="evenodd" clip-rule="evenodd" d="M29.6627 19.855C30.3735 19.855 30.9494 20.4321 30.9494 21.1444C30.9494 21.8567 30.3735 22.4338 29.6627 22.4338C28.9518 22.4338 28.376 21.8567 28.376 21.1444C28.376 20.4321 28.9518 19.855 29.6627 19.855Z" fill="#234C9E"/>
<path fill-rule="evenodd" clip-rule="evenodd" d="M29.6627 25.4565C30.3735 25.4565 30.9494 26.0336 30.9494 26.7459C30.9494 27.4582 30.3735 28.0353 29.6627 28.0353C28.9518 28.0353 28.376 27.4582 28.376 26.7459C28.376 26.0336 28.9518 25.4565 29.6627 25.4565Z" fill="#234C9E"/>
</svg>
