<svg xmlns="http://www.w3.org/2000/svg">


  <!--!____0____HEADER____0____-->

  <symbol id="logo1" viewBox="0 0 130 22" fill="none">
    <g>
      <path fill-rule="evenodd" clip-rule="evenodd" d="M7.52884 0.0975085C8.06555 0.0975085 8.33815 0.364632 8.33815 0.897906C8.33815 1.43144 8.06555 1.69813 7.52884 1.69813H4.28216C3.34652 1.69813 2.64593 2.0984 2.18034 2.89437C1.95799 3.2695 1.84904 3.67801 1.84904 4.11565V12.1805C1.84904 12.8517 2.08782 13.4225 2.56211 13.8933C3.03613 14.3645 3.61091 14.602 4.28216 14.602H7.52884C8.06555 14.602 8.33815 14.8686 8.33815 15.4024C8.33815 15.9357 8.06555 16.2026 7.52884 16.2026H4.28216C3.16199 16.2026 2.20545 15.8109 1.41704 15.0273C0.632604 14.2395 0.238159 13.2891 0.238159 12.1763V4.12402C0.238159 3.01101 0.632604 2.06084 1.41704 1.27306C2.20545 0.489441 3.16199 0.0975085 4.28216 0.0975085H7.52884ZM108.103 6.52451C108.644 6.52451 108.913 6.25786 108.913 5.72435C108.913 5.19105 108.639 4.92418 108.099 4.92418H101.597C101.057 4.92418 100.783 5.19105 100.783 5.72435C100.783 6.25786 101.052 6.52451 101.593 6.52451C102.409 6.52451 103.226 6.52475 104.042 6.52475V15.3938C104.042 15.9308 104.311 16.2026 104.848 16.2026C105.385 16.2026 105.653 15.9318 105.653 15.3938V6.52475C106.47 6.52475 107.286 6.52451 108.103 6.52451ZM17.2606 6.52451C17.8015 6.52451 18.0702 6.25786 18.0702 5.72435C18.0702 5.19105 17.7969 4.92418 17.2562 4.92418H10.7548C10.2139 4.92418 9.94082 5.19105 9.94082 5.72435C9.94082 6.25786 10.2094 6.52451 10.7504 6.52451C11.567 6.52451 12.3831 6.52475 13.1999 6.52475V15.3938C13.1999 15.9313 13.4688 16.2026 14.0055 16.2026C14.5424 16.2026 14.8108 15.9318 14.8108 15.3938V6.52475C15.6276 6.52475 16.4438 6.52451 17.2606 6.52451ZM19.6728 5.72853C19.6728 5.19083 19.9454 4.92418 20.4866 4.92418H24.5513C25.4615 4.92418 26.2328 5.2384 26.8583 5.85777C27.4861 6.4797 27.8021 7.24237 27.8021 8.14588V12.9807C27.8021 13.8758 27.4861 14.6347 26.8583 15.2606C26.2284 15.8884 25.4564 16.2026 24.5431 16.2026H21.2835V20.2244C21.2835 20.7615 21.0151 21.029 20.4782 21.029C19.9414 21.029 19.6728 20.7624 19.6728 20.2244V5.72853ZM21.2835 6.52475V14.602H24.5555C25.0084 14.602 25.3944 14.4436 25.7132 14.131C26.0321 13.8184 26.1913 13.4349 26.1913 12.9849V8.14164C26.1913 7.68324 26.0349 7.30045 25.7217 6.99136C25.4066 6.68016 25.0159 6.52475 24.5555 6.52475H21.2835ZM31.0281 12.1763V8.95046C31.0281 7.83748 31.4235 6.88776 32.215 6.10369C33.0084 5.31752 33.9687 4.92418 35.0926 4.92418C36.2339 4.92418 37.1979 5.31329 37.9831 6.09108C38.7663 6.86675 39.1575 7.8216 39.1575 8.95046V12.1763C39.1575 13.2882 38.7616 14.2388 37.9704 15.0231C37.1771 15.8093 36.217 16.2026 35.0926 16.2026C33.9687 16.2026 33.0084 15.8095 32.215 15.0231C31.4238 14.239 31.0281 13.2891 31.0281 12.1763ZM37.5466 12.1847V8.95854C37.5466 8.29181 37.3092 7.72237 36.8293 7.24972C36.3494 6.77709 35.7723 6.54102 35.0926 6.54102C34.4176 6.54102 33.836 6.77709 33.3561 7.24972C32.8762 7.72237 32.6388 8.29276 32.6388 8.95854V12.1847C32.6388 12.8588 32.8774 13.4323 33.3519 13.9018C33.8243 14.3691 34.4089 14.6019 35.0926 14.6019C35.7723 14.6019 36.3485 14.3649 36.8293 13.8932C37.3081 13.4239 37.5466 12.8516 37.5466 12.1847ZM50.5129 5.7369V15.4023C50.5129 15.9347 50.2393 16.2025 49.6991 16.2025H45.6344C44.7251 16.2025 43.9538 15.8913 43.3274 15.2729C42.7005 14.6544 42.3835 13.8932 42.3835 12.9888V5.7369C42.3835 5.19941 42.6519 4.93232 43.1888 4.93232C43.7255 4.93232 43.9939 5.20034 43.9939 5.7369V12.9888C43.9939 13.4297 44.154 13.8106 44.4764 14.127C44.7992 14.4433 45.1855 14.6019 45.6302 14.6019H48.902V5.7369C48.902 5.19941 49.1706 4.93232 49.7075 4.93232C50.2442 4.93232 50.5129 5.20034 50.5129 5.7369ZM48.0842 1.69801H44.8121C44.2679 1.69801 43.9939 1.43138 43.9939 0.897848C43.9939 0.364574 44.267 0.0974504 44.8121 0.0974504H48.0842C48.6294 0.0974504 48.902 0.364574 48.902 0.897848C48.902 1.43138 48.6284 1.69801 48.0842 1.69801ZM57.4762 7.77067L55.3746 10.0671V15.3937C55.3746 15.9307 55.106 16.2025 54.5693 16.2025C54.0321 16.2025 53.7637 15.9316 53.7637 15.3937V0.87687C53.7637 0.339383 54.0321 0.0727539 54.5693 0.0727539C55.106 0.0727539 55.3746 0.340312 55.3746 0.87687V7.66241L62.0609 0.339359C62.2246 0.159967 62.4303 0.0727539 62.6733 0.0727539C63.2147 0.0727539 63.4873 0.339383 63.4873 0.87687C63.4873 1.08147 63.4117 1.26643 63.2649 1.42717L58.6297 6.49947L63.3739 14.9939C63.4464 15.1236 63.4873 15.2563 63.4873 15.3937C63.4873 15.598 63.4032 15.7854 63.2354 15.9522C63.0675 16.119 62.8789 16.2025 62.6733 16.2025C62.3464 16.2025 62.1077 16.0597 61.9478 15.7732L57.4762 7.77067ZM73.2357 17.8404V16.2025H69.9766C69.063 16.2025 68.2908 15.8883 67.6611 15.2605C67.0336 14.6346 66.7173 13.8767 66.7173 12.9806V5.72847C66.7173 5.19077 66.9859 4.92413 67.5226 4.92413C68.0596 4.92413 68.3279 5.1917 68.3279 5.72847V12.9888C68.3279 13.4297 68.4869 13.8073 68.8104 14.127C69.1318 14.4442 69.5195 14.6019 69.9641 14.6019H73.2357V5.72847C73.2357 5.19077 73.5045 4.92413 74.0413 4.92413C74.5782 4.92413 74.8466 5.1917 74.8466 5.72847V17.807C74.8466 18.7024 74.5369 19.4631 73.9154 20.0911C73.2961 20.7166 72.5304 21.0289 71.6253 21.0289H68.3279C67.7879 21.0289 67.5184 20.7623 67.5184 20.2285C67.5184 20.0202 67.5982 19.8324 67.7616 19.6701C67.9253 19.5074 68.1143 19.4284 68.3279 19.4284H71.5999C72.0613 19.4284 72.4532 19.2791 72.7661 18.9782C73.0813 18.6756 73.2357 18.2948 73.2357 17.8404ZM78.0726 5.72847C78.0726 5.19077 78.3452 4.92413 78.8861 4.92413H82.951C83.8613 4.92413 84.6326 5.23835 85.2581 5.85771C85.8859 6.47964 86.2019 7.24226 86.2019 8.14576V12.9806C86.2019 13.8758 85.8859 14.6346 85.2581 15.2605C84.6282 15.8883 83.8562 16.2025 82.9428 16.2025H79.6833V20.2243C79.6833 20.7613 79.4147 21.0289 78.8779 21.0289C78.341 21.0289 78.0726 20.7623 78.0726 20.2243V5.72847ZM79.6833 6.52469V14.6019H82.9553C83.4082 14.6019 83.7946 14.443 84.113 14.1309C84.4312 13.8188 84.591 13.4348 84.591 12.9848V8.14158C84.591 7.68319 84.4347 7.30033 84.1215 6.99125C83.8064 6.68004 83.4157 6.52469 82.9553 6.52469H79.6833ZM95.9464 6.52469H92.6746C92.2226 6.52469 91.835 6.6833 91.5169 6.99543C91.1985 7.3078 91.0384 7.69252 91.0384 8.14158V12.9848C91.0384 13.4257 91.1994 13.8053 91.5209 14.1228C91.8446 14.4421 92.2299 14.6019 92.6746 14.6019H94.3104C94.7635 14.6019 95.1498 14.443 95.4684 14.1309C95.7865 13.8188 95.9464 13.4348 95.9464 12.9848V6.52469ZM99.1806 15.3982C99.1806 15.9356 98.908 16.2025 98.3671 16.2025C97.616 16.2025 96.9952 15.9189 96.5085 15.348C95.913 15.9189 95.1737 16.2025 94.3064 16.2025H92.6788C91.7695 16.2025 90.9973 15.8883 90.3718 15.2687C89.744 14.6472 89.428 13.8851 89.428 12.9806V8.14576C89.428 7.2413 89.744 6.47964 90.3718 5.85771C90.9973 5.23835 91.7686 4.92413 92.6788 4.92413H96.7435C97.2847 4.92413 97.5573 5.1917 97.5573 5.72847V13.7852C97.5573 14.3218 97.8256 14.5893 98.3671 14.5893C98.908 14.5893 99.1806 14.8602 99.1806 15.3982ZM110.515 12.1762V8.9504C110.515 7.83742 110.911 6.88746 111.702 6.10363C112.495 5.31791 113.456 4.92413 114.58 4.92413C115.721 4.92413 116.685 5.31371 117.47 6.09102C118.253 6.86645 118.645 7.82223 118.645 8.9504V12.1762C118.645 13.2874 118.249 14.2392 117.458 15.023C116.665 15.809 115.704 16.2025 114.58 16.2025C113.456 16.2025 112.495 15.809 111.702 15.023C110.911 14.2392 110.515 13.289 110.515 12.1762ZM117.034 12.1846V8.95848C117.034 8.29175 116.796 7.72231 116.316 7.24966C115.837 6.77703 115.259 6.54096 114.58 6.54096C113.905 6.54096 113.323 6.77703 112.843 7.24966C112.363 7.72231 112.126 8.29339 112.126 8.95848V12.1846C112.126 12.8581 112.365 13.4327 112.839 13.9018C113.311 14.3688 113.896 14.6019 114.58 14.6019C115.259 14.6019 115.836 14.3644 116.316 13.8932C116.795 13.4241 117.034 12.8515 117.034 12.1846ZM121.871 5.72842C121.871 5.19071 122.143 4.92407 122.684 4.92407H126.749C127.659 4.92407 128.431 5.23852 129.056 5.85765C129.683 6.4789 130 7.24289 130 8.14571V12.9805C130 13.8749 129.683 14.635 129.056 15.2604C128.427 15.888 127.653 16.2024 126.741 16.2024H123.481V20.2242C123.481 20.7606 123.213 21.0289 122.676 21.0289C122.139 21.0289 121.871 20.7622 121.871 20.2242V5.72842ZM123.481 6.52463V14.6019H126.753C127.206 14.6019 127.593 14.4428 127.911 14.1308C128.229 13.8192 128.389 13.4348 128.389 12.9848V8.14152C128.389 7.68313 128.232 7.30004 127.919 6.99119C127.605 6.68044 127.213 6.52463 126.753 6.52463H123.481Z" fill="#00A0D1"/>
      <path fill-rule="evenodd" clip-rule="evenodd" d="M11.9051 0.0732422C11.3656 0.0732422 11.0956 0.339871 11.0956 0.873407C11.0956 1.40668 11.3682 1.67357 11.9096 1.67357H40.4238C40.9648 1.67357 41.2334 1.40692 41.2334 0.873407C41.2334 0.340109 40.9601 0.0732422 40.4193 0.0732422H11.9051Z" fill="#234C9E"/>
    </g>
  </symbol>

  <symbol id="logo2" viewBox="0 0 192 56" fill="none">
    <g>
      <path fill-rule="evenodd" clip-rule="evenodd" d="M56.9049 39.5596L57.0385 39.96C56.6595 40.1681 56.2064 40.272 55.679 40.272C54.9805 40.272 54.4176 40.0233 53.9903 39.5261C53.5632 39.0289 53.3494 38.3688 53.3494 37.5451C53.3494 36.7214 53.5798 36.0444 54.0406 35.5137C54.5012 34.9834 55.1031 34.7179 55.846 34.7179C56.3735 34.7179 56.7749 34.8146 57.0498 35.0074L56.8714 35.4413C56.5669 35.2635 56.2065 35.1742 55.7905 35.1742C55.1811 35.1742 54.7092 35.4024 54.3748 35.8587C54.0407 36.315 53.8733 36.8736 53.8733 37.5341C53.8733 38.2315 54.0478 38.7878 54.3972 39.2036C54.7462 39.619 55.2032 39.8267 55.768 39.8267C56.1395 39.8267 56.5184 39.7378 56.9049 39.5596ZM57.6849 34.8292H61.3629V35.2745H59.7801V40.1717H59.2676V35.2745H57.6849V34.8292ZM62.1988 42.353V36.5211C62.1988 35.9869 62.1839 35.4229 62.1543 34.8292H62.6444L62.6779 35.7532H62.7003C63.0643 35.0632 63.6402 34.7179 64.4276 34.7179C65.0295 34.7179 65.5219 34.9629 65.9044 35.4527C66.287 35.9424 66.4784 36.6026 66.4784 37.4338C66.4784 38.3539 66.2685 39.0588 65.8489 39.5485C65.429 40.0379 64.9106 40.283 64.2941 40.283C63.5807 40.283 63.0607 39.986 62.7337 39.3924H62.7113V42.353H62.1988ZM62.7113 36.9774V38.1127C62.7113 38.2759 62.7263 38.4168 62.7559 38.5356C62.8598 38.9585 63.0513 39.2831 63.3298 39.5096C63.6086 39.7358 63.9226 39.8491 64.2717 39.8491C64.8141 39.8491 65.2301 39.6264 65.52 39.1812C65.8099 38.7359 65.9545 38.1608 65.9545 37.4562C65.9545 36.8178 65.8099 36.2745 65.52 35.8256C65.2301 35.3764 64.8251 35.1522 64.3051 35.1522C63.9561 35.1522 63.6347 35.282 63.3412 35.5416C63.0477 35.8013 62.8563 36.1316 62.7672 36.5321C62.7299 36.7697 62.7113 36.918 62.7113 36.9774ZM69.5435 40.283H69.5324C68.9081 40.283 68.3881 40.0379 67.9721 39.5485C67.5561 39.0588 67.3478 38.3873 67.3478 37.5341C67.3478 36.6435 67.5671 35.9516 68.0056 35.4582C68.444 34.9649 68.9789 34.7179 69.6104 34.7179C70.2568 34.7179 70.7843 34.9649 71.1932 35.4582C71.6017 35.9516 71.8061 36.6214 71.8061 37.4672C71.8061 38.3873 71.5793 39.0864 71.1262 39.5651C70.6728 40.0438 70.1454 40.283 69.5435 40.283ZM69.5545 39.8491H69.5659C70.071 39.8491 70.4834 39.6135 70.8028 39.1422C71.1223 38.671 71.2822 38.1163 71.2822 37.4782C71.2822 37.1297 71.2322 36.7882 71.1317 36.4542C71.0313 36.1203 70.8457 35.8198 70.5744 35.5527C70.3033 35.2856 69.9708 35.1522 69.5769 35.1522C69.1905 35.1522 68.8636 35.2784 68.5961 35.5306C68.3286 35.7828 68.1411 36.0797 68.0332 36.4209C67.9256 36.7623 67.8717 37.1258 67.8717 37.5117C67.8717 38.1348 68.0277 38.6804 68.34 39.1477C68.652 39.6151 69.0569 39.8491 69.5545 39.8491ZM73.0431 34.8292H73.5445V37.3448C73.5445 38.287 73.526 39.0474 73.489 39.6264H73.5111C73.9794 38.6988 74.3099 38.0608 74.503 37.7119L76.2417 34.8292H76.8212V40.1717H76.3197V37.6674C76.3197 36.7622 76.3382 35.9944 76.3756 35.3634H76.3532C76.0113 36.0684 75.6847 36.6954 75.3724 37.2445C75.1793 37.5412 74.8618 38.0643 74.4194 38.8137C73.9774 39.5631 73.708 40.0159 73.6115 40.1717H73.0431V34.8292ZM77.7465 34.8292H81.4245V35.2745H79.8417V40.1717H79.3292V35.2745H77.7465V34.8292ZM85.7376 37.4003H82.238C82.238 38.261 82.4089 38.8806 82.7505 39.2591C83.0924 39.6375 83.5308 39.8267 84.0658 39.8267C84.5858 39.8267 85.0167 39.7338 85.3586 39.5485L85.4811 39.949C85.1246 40.1642 84.6303 40.272 83.9988 40.272C83.2929 40.272 82.7375 40.025 82.3325 39.5317C81.9276 39.0384 81.7251 38.3873 81.7251 37.5785C81.7251 36.7103 81.926 36.0164 82.327 35.4971C82.7284 34.9779 83.2484 34.7179 83.8874 34.7179C84.2517 34.7179 84.5637 34.7997 84.8237 34.9629C85.0837 35.1262 85.2767 35.3375 85.4032 35.5974C85.5296 35.8571 85.6186 36.1092 85.6706 36.3543C85.7226 36.599 85.7486 36.8401 85.7486 37.0777C85.7486 37.226 85.7451 37.3335 85.7376 37.4003ZM82.2601 36.9884H85.2137C85.2286 36.4841 85.1191 36.0518 84.8848 35.6919C84.6508 35.3319 84.2962 35.1522 83.8207 35.1522C83.3524 35.1522 82.9884 35.3359 82.7284 35.7029C82.4684 36.0703 82.3124 36.4987 82.2601 36.9884ZM87.3314 34.8292H90.363V40.1717H89.8501V35.2635H87.8439V36.9884C87.8439 37.879 87.7864 38.5616 87.6713 39.0364C87.5563 39.5112 87.3239 39.8416 86.9748 40.0269C86.7594 40.1532 86.5364 40.2161 86.306 40.2161L86.2504 39.7933C86.421 39.7708 86.5774 39.7153 86.7184 39.6264C86.971 39.4557 87.1364 39.1717 87.2144 38.7748C87.2924 38.3779 87.3314 37.8047 87.3314 37.0553V34.8292ZM91.9678 34.8292H92.4807V36.7882C92.7777 36.7584 93.0416 36.7438 93.2717 36.7438C93.9182 36.7438 94.459 36.8791 94.8935 37.1498C95.328 37.4208 95.5454 37.8641 95.5454 38.4798C95.5454 38.9474 95.3859 39.3294 95.0664 39.6264C94.6426 40.0269 93.9851 40.2272 93.0936 40.2272C92.9227 40.2272 92.7033 40.2179 92.4358 40.1996C92.1683 40.1812 92.0123 40.1717 91.9678 40.1717V34.8292ZM92.4807 37.2222V39.7598C92.6588 39.7897 92.8967 39.8043 93.1937 39.8043C93.6767 39.8043 94.1001 39.6988 94.4645 39.4872C94.8285 39.2756 95.0105 38.9436 95.0105 38.4911C95.0105 38.1646 94.9101 37.8976 94.7095 37.6898C94.509 37.4821 94.2786 37.3429 94.0186 37.2724C93.7586 37.2017 93.4726 37.1666 93.1603 37.1666C92.8928 37.1666 92.6662 37.1851 92.4807 37.2222ZM99.9368 39.5596L100.07 39.96C99.6915 40.1681 99.2384 40.272 98.7109 40.272C98.0125 40.272 97.4496 40.0233 97.0222 39.5261C96.5952 39.0289 96.3813 38.3688 96.3813 37.5451C96.3813 36.7214 96.6117 36.0444 97.0726 35.5137C97.5331 34.9834 98.135 34.7179 98.878 34.7179C99.4054 34.7179 99.8068 34.8146 100.082 35.0074L99.9033 35.4413C99.5988 35.2635 99.2384 35.1742 98.8224 35.1742C98.213 35.1742 97.7411 35.4024 97.4067 35.8587C97.0726 36.315 96.9052 36.8736 96.9052 37.5341C96.9052 38.2315 97.0798 38.7878 97.4291 39.2036C97.7782 39.619 98.2351 39.8267 98.8 39.8267C99.1715 39.8267 99.5504 39.7378 99.9368 39.5596ZM100.717 34.8292H104.395V35.2745H102.812V40.1717H102.3V35.2745H100.717V34.8292ZM105.197 40.1827V34.874C105.591 34.7997 106.022 34.7627 106.49 34.7627C106.839 34.7627 107.155 34.7923 107.438 34.8516C107.72 34.911 107.98 35.0444 108.218 35.2521C108.455 35.4601 108.574 35.7347 108.574 36.0758C108.574 36.3874 108.472 36.6565 108.268 36.8827C108.063 37.1092 107.794 37.2595 107.46 37.3335V37.3559C107.868 37.4153 108.197 37.5601 108.446 37.7899C108.695 38.02 108.819 38.328 108.819 38.7139C108.819 39.0105 108.743 39.2666 108.591 39.4817C108.439 39.6969 108.234 39.8547 107.978 39.9547C107.722 40.0549 107.465 40.1273 107.209 40.1718C106.953 40.2162 106.68 40.2386 106.39 40.2386C105.989 40.2386 105.591 40.2202 105.197 40.1828V40.1827ZM105.699 35.2521V37.1666H106.468C106.869 37.1666 107.233 37.0794 107.56 36.9051C107.887 36.7308 108.05 36.4767 108.05 36.1427C108.05 35.5195 107.519 35.2077 106.457 35.2077C106.249 35.2077 105.996 35.2225 105.699 35.2521ZM105.688 37.5895V39.7598C105.955 39.7823 106.215 39.7933 106.468 39.7933C106.683 39.7933 106.884 39.7784 107.07 39.7488C107.256 39.719 107.447 39.669 107.644 39.5985C107.841 39.5281 107.997 39.4148 108.112 39.2591C108.227 39.1033 108.284 38.9176 108.284 38.7024C108.284 37.9605 107.657 37.5895 106.401 37.5895H105.688ZM111.896 40.283H111.885C111.26 40.283 110.74 40.0379 110.324 39.5485C109.908 39.0588 109.7 38.3873 109.7 37.5341C109.7 36.6435 109.919 35.9516 110.358 35.4582C110.796 34.9649 111.331 34.7179 111.963 34.7179C112.609 34.7179 113.136 34.9649 113.545 35.4582C113.954 35.9516 114.158 36.6214 114.158 37.4672C114.158 38.3873 113.931 39.0864 113.478 39.5651C113.025 40.0438 112.497 40.283 111.896 40.283H111.896ZM111.907 39.8491H111.918C112.423 39.8491 112.835 39.6135 113.155 39.1422C113.474 38.671 113.634 38.1163 113.634 37.4782C113.634 37.1297 113.584 36.7882 113.484 36.4542C113.383 36.1203 113.198 35.8198 112.926 35.5527C112.655 35.2856 112.323 35.1522 111.929 35.1522C111.542 35.1522 111.216 35.2784 110.948 35.5306C110.681 35.7828 110.493 36.0797 110.385 36.4209C110.278 36.7623 110.224 37.1258 110.224 37.5117C110.224 38.1348 110.38 38.6804 110.692 39.1477C111.004 39.6151 111.409 39.8491 111.906 39.8491H111.907ZM117.624 34.8292H118.126V37.3448C118.126 38.287 118.107 39.0474 118.07 39.6264H118.092C118.561 38.6988 118.891 38.0608 119.084 37.7119L120.823 34.8292H121.402V40.1717H120.901V37.6674C120.901 36.7622 120.919 35.9944 120.957 35.3634H120.934C120.592 36.0684 120.266 36.6954 119.953 37.2445C119.76 37.5412 119.443 38.0643 119.001 38.8137C118.559 39.5631 118.289 40.0159 118.193 40.1717H117.624V34.8292H117.624ZM125.259 42.353V36.5211C125.259 35.9869 125.244 35.4229 125.215 34.8292H125.705L125.738 35.7532H125.761C126.125 35.0632 126.701 34.7179 127.488 34.7179C128.09 34.7179 128.582 34.9629 128.965 35.4527C129.347 35.9424 129.539 36.6026 129.539 37.4338C129.539 38.3539 129.329 39.0588 128.909 39.5485C128.489 40.0379 127.971 40.283 127.355 40.283C126.641 40.283 126.121 39.986 125.794 39.3924H125.772V42.353H125.259ZM125.772 36.9774V38.1127C125.772 38.2759 125.787 38.4168 125.816 38.5356C125.92 38.9585 126.112 39.2831 126.39 39.5096C126.669 39.7358 126.983 39.8491 127.332 39.8491C127.874 39.8491 128.29 39.6264 128.58 39.1812C128.87 38.7359 129.015 38.1608 129.015 37.4562C129.015 36.8178 128.87 36.2745 128.58 35.8256C128.29 35.3764 127.886 35.1522 127.366 35.1522C127.016 35.1522 126.695 35.282 126.402 35.5416C126.108 35.8013 125.917 36.1316 125.828 36.5321C125.79 36.7697 125.772 36.918 125.772 36.9774ZM134.421 37.4003H130.921C130.921 38.261 131.092 38.8806 131.434 39.2591C131.775 39.6375 132.214 39.8267 132.749 39.8267C133.269 39.8267 133.7 39.7338 134.042 39.5485L134.164 39.949C133.808 40.1642 133.313 40.272 132.682 40.272C131.976 40.272 131.421 40.025 131.016 39.5317C130.611 39.0384 130.408 38.3873 130.408 37.5785C130.408 36.7103 130.609 36.0164 131.01 35.4971C131.411 34.9779 131.931 34.7179 132.57 34.7179C132.935 34.7179 133.247 34.7997 133.507 34.9629C133.767 35.1262 133.96 35.3375 134.086 35.5974C134.213 35.8571 134.302 36.1092 134.354 36.3543C134.406 36.599 134.432 36.8401 134.432 37.0777C134.432 37.226 134.428 37.3335 134.421 37.4003H134.421ZM130.943 36.9884H133.897C133.912 36.4841 133.802 36.0518 133.568 35.6919C133.334 35.3319 132.979 35.1522 132.504 35.1522C132.035 35.1522 131.671 35.3359 131.411 35.7029C131.151 36.0703 130.995 36.4987 130.943 36.9884ZM135.312 40.1717L135.713 34.8292H136.304L137.418 37.8343C137.723 38.6729 137.913 39.2107 137.987 39.4482H137.998C138.095 39.1441 138.329 38.4837 138.7 37.4672L139.681 34.8292H140.283L140.684 40.1717H140.171L140.026 37.4338C139.982 36.6769 139.945 36.0018 139.915 35.4083H139.882C139.755 35.8386 139.547 36.4358 139.258 37.2001L138.132 40.1717H137.775L136.705 37.278C136.408 36.4098 136.207 35.7867 136.103 35.4083H136.059C136.051 35.9425 136.021 36.6286 135.969 37.4672L135.825 40.1717H135.312H135.312ZM143.771 40.283H143.76C143.136 40.283 142.616 40.0379 142.2 39.5485C141.784 39.0588 141.576 38.3873 141.576 37.5341C141.576 36.6435 141.795 35.9516 142.233 35.4582C142.672 34.9649 143.207 34.7179 143.838 34.7179C144.485 34.7179 145.012 34.9649 145.421 35.4582C145.829 35.9516 146.034 36.6214 146.034 37.4672C146.034 38.3873 145.807 39.0864 145.354 39.5651C144.901 40.0438 144.373 40.283 143.771 40.283H143.771ZM143.782 39.8491H143.793C144.299 39.8491 144.711 39.6135 145.03 39.1422C145.35 38.671 145.51 38.1163 145.51 37.4782C145.51 37.1297 145.46 36.7882 145.359 36.4542C145.259 36.1203 145.073 35.8198 144.802 35.5527C144.531 35.2856 144.198 35.1522 143.805 35.1522C143.418 35.1522 143.091 35.2784 142.824 35.5306C142.556 35.7828 142.369 36.0797 142.261 36.4209C142.153 36.7623 142.099 37.1258 142.099 37.5117C142.099 38.1348 142.255 38.6804 142.568 39.1477C142.88 39.6151 143.285 39.8491 143.782 39.8491H143.782ZM147.271 34.8292H147.784V37.1556H150.503V34.8292H151.016V40.1717H150.503V37.6005H147.784V40.1717H147.271V34.8292ZM151.941 34.8292H155.619V35.2745H154.036V40.1717H153.523V35.2745H151.941V34.8292Z" fill="#234C9E"/>
      <path fill-rule="evenodd" clip-rule="evenodd" d="M22.7585 55.7975C18.4746 53.5902 12.8437 50.4258 8.27253 46.6016C3.58571 42.6811 0 38.0536 0 32.9939V6.95151L0.530719 6.73119C8.28166 3.5136 12.5762 2.49869 22.4942 0.155098L23.1514 0L23.8085 0.155098C33.7266 2.49869 38.0211 3.5136 45.772 6.73119L46.3028 6.95151V32.9939C46.3028 38.054 42.7174 42.6807 38.0302 46.6016C33.4594 50.4255 27.8284 53.5902 23.5443 55.7975L23.1511 56L22.7585 55.7975ZM9.37428 45.2866C13.6893 48.8962 19.0037 51.9181 23.1514 54.0715C27.2993 51.9181 32.6134 48.8962 36.9284 45.2866C41.2652 41.6587 44.5828 37.4503 44.5828 32.9939V8.09556C37.295 5.10516 33.0125 4.09258 23.4192 1.82591L23.1514 1.76263L22.8836 1.82591C13.2902 4.09258 9.0077 5.10516 1.71989 8.09556V32.9939C1.71989 37.4503 5.03749 41.659 9.37428 45.2866Z" fill="#234C9E"/>
      <path fill-rule="evenodd" clip-rule="evenodd" d="M40.2083 24.2401C40.6831 24.2401 41.0682 24.6247 41.0682 25.0989C41.0682 25.573 40.6831 25.9576 40.2083 25.9576H6.09433C5.6195 25.9576 5.23438 25.573 5.23438 25.0989C5.23438 24.6247 5.6195 24.2401 6.09433 24.2401H40.2083Z" fill="#234C9E"/>
      <path fill-rule="evenodd" clip-rule="evenodd" d="M10.9017 29.7097C10.9477 30.6345 11.0508 31.526 11.2131 32.3837H16.8203C17.2947 32.3837 17.6796 32.7681 17.6796 33.2419C17.6796 33.7157 17.2947 34.1001 16.8203 34.1001H11.6309C11.9134 35.0384 12.2765 35.9303 12.7221 36.7741H25.2183C25.6927 36.7741 26.0776 37.1585 26.0776 37.6323C26.0776 38.1061 25.6927 38.4905 25.2183 38.4905H13.791C14.5347 39.495 15.3378 40.3577 16.2961 41.1646H22.2906C22.7651 41.1646 23.15 41.5489 23.15 42.0227C23.15 42.4965 22.7651 42.8809 22.2906 42.8809H18.7214C20.0246 43.6582 21.4997 44.342 23.1517 44.9286C27.3108 43.4515 30.3469 41.36 32.3524 38.7067C34.3926 36.0074 35.3854 32.7009 35.4278 28.8447C35.4313 28.3727 35.818 27.9931 36.2907 27.9966C36.7634 28.0002 37.1436 28.3862 37.1401 28.8583C37.0934 33.0908 35.9899 36.738 33.7219 39.739C31.4637 42.727 28.0679 45.0513 23.4302 46.6487L23.152 46.7444L22.8732 46.6487C18.2354 45.0513 14.8398 42.727 12.5816 39.739C10.3337 36.7643 9.2294 33.1545 9.16517 28.9696C9.16517 28.9305 9.16218 28.8906 9.16016 28.8515C9.16016 28.3777 9.54506 27.9933 10.0195 27.9933H30.4186C30.8931 27.9933 31.278 28.3777 31.278 28.8515C31.278 29.3254 30.8931 29.7097 30.4186 29.7097H10.9017Z" fill="#00A0D1"/>
      <path fill-rule="evenodd" clip-rule="evenodd" d="M27.7385 15.1744C27.7385 15.6486 27.3533 16.0331 26.8785 16.0331C26.4037 16.0331 26.0186 15.6486 26.0186 15.1744V8.1436C26.0186 7.66943 26.4037 7.28485 26.8785 7.28485C26.9679 7.28485 27.054 7.29839 27.1349 7.3238C30.3498 8.20399 33.1364 10.1247 35.1069 12.701C37.0396 15.228 38.1882 18.3839 38.1882 21.8053C38.1882 22.2794 37.803 22.664 37.3282 22.664C36.8534 22.664 36.4683 22.2794 36.4683 21.8053C36.4683 18.771 35.4527 15.9757 33.7431 13.7408C32.2186 11.7477 30.1409 10.1973 27.7385 9.31748V15.1744Z" fill="#234C9E"/>
      <path fill-rule="evenodd" clip-rule="evenodd" d="M20.2839 15.1744C20.2839 15.6486 19.8988 16.0331 19.4239 16.0331C18.9491 16.0331 18.564 15.6486 18.564 15.1744V9.31748C16.1616 10.1973 14.0838 11.7477 12.5593 13.7408C10.8498 15.9757 9.83413 18.771 9.83413 21.8053C9.83413 22.2794 9.44901 22.664 8.97418 22.664C8.49938 22.664 8.11426 22.2794 8.11426 21.8053C8.11426 18.3839 9.2628 15.228 11.1956 12.701C13.1661 10.1247 15.9526 8.20399 19.1675 7.3238C19.2484 7.29849 19.3345 7.28485 19.4239 7.28485C19.8988 7.28485 20.2839 7.66943 20.2839 8.1436V15.1744Z" fill="#234C9E"/>
      <path fill-rule="evenodd" clip-rule="evenodd" d="M23.1515 6.72888C23.7062 6.72888 24.1557 7.17773 24.1557 7.73175C24.1557 8.28576 23.7062 8.73492 23.1515 8.73492C22.5967 8.73492 22.1472 8.28576 22.1472 7.73175C22.1472 7.17773 22.5967 6.72888 23.1515 6.72888Z" fill="#234C9E"/>
      <path fill-rule="evenodd" clip-rule="evenodd" d="M23.1515 11.086C23.7062 11.086 24.1557 11.5349 24.1557 12.0889C24.1557 12.6429 23.7062 13.0921 23.1515 13.0921C22.5967 13.0921 22.1472 12.6429 22.1472 12.0889C22.1472 11.5349 22.5967 11.086 23.1515 11.086Z" fill="#234C9E"/>
      <path fill-rule="evenodd" clip-rule="evenodd" d="M23.1515 15.4427C23.7062 15.4427 24.1557 15.8916 24.1557 16.4456C24.1557 16.9996 23.7062 17.4485 23.1515 17.4485C22.5967 17.4485 22.1472 16.9996 22.1472 16.4456C22.1472 15.8916 22.5967 15.4427 23.1515 15.4427Z" fill="#234C9E"/>
      <path fill-rule="evenodd" clip-rule="evenodd" d="M23.1515 19.7996C23.7062 19.7996 24.1557 20.2484 24.1557 20.8024C24.1557 21.3564 23.7062 21.8053 23.1515 21.8053C22.5967 21.8053 22.1472 21.3564 22.1472 20.8024C22.1472 20.2484 22.5967 19.7996 23.1515 19.7996Z" fill="#234C9E"/>
      <path fill-rule="evenodd" clip-rule="evenodd" d="M61.119 8.66044C61.6925 8.66044 61.9838 8.94735 61.9838 9.52012C61.9838 10.0932 61.6925 10.3796 61.119 10.3796H57.6493C56.6494 10.3796 55.9007 10.8095 55.4032 11.6645C55.1656 12.0674 55.0491 12.5062 55.0491 12.9762V21.6385C55.0491 22.3594 55.3043 22.9725 55.8112 23.4781C56.3177 23.9843 56.932 24.2393 57.6493 24.2393H61.119C61.6925 24.2393 61.9838 24.5257 61.9838 25.099C61.9838 25.6718 61.6925 25.9585 61.119 25.9585H57.6493C56.4522 25.9585 55.43 25.5378 54.5875 24.6961C53.7492 23.85 53.3276 22.8292 53.3276 21.634V12.9852C53.3276 11.7898 53.7492 10.7692 54.5875 9.92307C55.43 9.0814 56.4522 8.66044 57.6493 8.66044H61.119ZM168.599 15.5635C169.177 15.5635 169.465 15.2771 169.465 14.7041C169.465 14.1313 169.172 13.8446 168.595 13.8446H161.647C161.069 13.8446 160.777 14.1313 160.777 14.7041C160.777 15.2771 161.064 15.5635 161.642 15.5635C162.515 15.5635 163.387 15.5638 164.26 15.5638V25.0898C164.26 25.6666 164.547 25.9585 165.121 25.9585C165.695 25.9585 165.981 25.6676 165.981 25.0898V15.5638C166.854 15.5638 167.726 15.5635 168.599 15.5635ZM71.519 15.5635C72.0971 15.5635 72.3841 15.2771 72.3841 14.7041C72.3841 14.1313 72.0921 13.8446 71.5142 13.8446H64.5665C63.9884 13.8446 63.6966 14.1313 63.6966 14.7041C63.6966 15.2771 63.9836 15.5635 64.5617 15.5635C65.4344 15.5635 66.3065 15.5638 67.1795 15.5638V25.0898C67.1795 25.6671 67.4667 25.9585 68.0403 25.9585C68.6142 25.9585 68.901 25.6676 68.901 25.0898V15.5638C69.7739 15.5638 70.646 15.5635 71.519 15.5635ZM74.0968 14.7086C74.0968 14.131 74.3881 13.8446 74.9665 13.8446H79.3103C80.2831 13.8446 81.1073 14.1821 81.7758 14.8474C82.4467 15.5154 82.7844 16.3346 82.7844 17.305V22.4979C82.7844 23.4594 82.4467 24.2745 81.7758 24.9467C81.1025 25.621 80.2775 25.9585 79.3015 25.9585H75.8181V30.2782C75.8181 30.855 75.5313 31.1424 74.9575 31.1424C74.3839 31.1424 74.0968 30.856 74.0968 30.2782V14.7086ZM75.8181 15.5638V24.2393H79.3148C79.7988 24.2393 80.2113 24.0692 80.552 23.7335C80.8928 23.3977 81.0629 22.9857 81.0629 22.5024V17.3004C81.0629 16.8081 80.8958 16.3969 80.5611 16.0649C80.2244 15.7307 79.8068 15.5638 79.3148 15.5638H75.8181ZM86.2319 21.634V18.1692C86.2319 16.9737 86.6545 15.9537 87.5003 15.1115C88.3481 14.2671 89.3743 13.8446 90.5754 13.8446C91.7951 13.8446 92.8254 14.2626 93.6644 15.098C94.5015 15.9311 94.9195 16.9567 94.9195 18.1692V21.634C94.9195 22.8282 94.4964 23.8492 93.6509 24.6916C92.803 25.536 91.7771 25.9585 90.5754 25.9585C89.3743 25.9585 88.3481 25.5363 87.5003 24.6916C86.6547 23.8495 86.2319 22.8292 86.2319 21.634ZM93.198 21.6429V18.1778C93.198 17.4617 92.9443 16.8501 92.4314 16.3424C91.9186 15.8348 91.3018 15.5812 90.5754 15.5812C89.8541 15.5812 89.2326 15.8348 88.7197 16.3424C88.2069 16.8501 87.9532 17.4627 87.9532 18.1778V21.6429C87.9532 22.367 88.2081 22.9829 88.7152 23.4873C89.22 23.9892 89.8448 24.2393 90.5754 24.2393C91.3018 24.2393 91.9176 23.9847 92.4314 23.4781C92.9431 22.9739 93.198 22.3593 93.198 21.6429ZM107.055 14.7176V25.099C107.055 25.6707 106.762 25.9584 106.185 25.9584H101.841C100.869 25.9584 100.045 25.6241 99.3757 24.9599C98.7057 24.2957 98.367 23.4781 98.367 22.5066V14.7176C98.367 14.1403 98.6538 13.8534 99.2276 13.8534C99.8012 13.8534 100.088 14.1413 100.088 14.7176V22.5066C100.088 22.9802 100.259 23.3893 100.604 23.7291C100.949 24.0689 101.361 24.2393 101.837 24.2393H105.333V14.7176C105.333 14.1403 105.62 13.8534 106.194 13.8534C106.768 13.8534 107.055 14.1413 107.055 14.7176ZM104.459 10.3795H100.962C100.381 10.3795 100.088 10.0931 100.088 9.52006C100.088 8.94729 100.38 8.66038 100.962 8.66038H104.459C105.042 8.66038 105.333 8.94729 105.333 9.52006C105.333 10.0931 105.041 10.3795 104.459 10.3795ZM114.496 16.902L112.25 19.3686V25.0897C112.25 25.6665 111.963 25.9584 111.39 25.9584C110.815 25.9584 110.529 25.6675 110.529 25.0897V9.49753C110.529 8.92023 110.815 8.63385 111.39 8.63385C111.963 8.63385 112.25 8.92123 112.25 9.49753V16.7857L119.396 8.9202C119.571 8.72752 119.79 8.63385 120.05 8.63385C120.629 8.63385 120.92 8.92023 120.92 9.49753C120.92 9.71728 120.839 9.91595 120.682 10.0886L115.729 15.5366L120.799 24.6603C120.876 24.7996 120.92 24.9421 120.92 25.0897C120.92 25.3092 120.83 25.5104 120.651 25.6895C120.471 25.8687 120.27 25.9584 120.05 25.9584C119.701 25.9584 119.446 25.805 119.275 25.4973L114.496 16.902ZM131.338 27.7176V25.9584H127.855C126.879 25.9584 126.053 25.6209 125.38 24.9466C124.71 24.2743 124.372 23.4603 124.372 22.4979V14.7085C124.372 14.131 124.659 13.8446 125.232 13.8446C125.806 13.8446 126.093 14.132 126.093 14.7085V22.5066C126.093 22.9802 126.263 23.3858 126.609 23.7291C126.952 24.0699 127.366 24.2393 127.842 24.2393H131.338V14.7085C131.338 14.131 131.625 13.8446 132.199 13.8446C132.772 13.8446 133.059 14.132 133.059 14.7085V27.6818C133.059 28.6434 132.728 29.4605 132.064 30.1351C131.402 30.8068 130.584 31.1424 129.617 31.1424H126.093C125.516 31.1424 125.228 30.856 125.228 30.2827C125.228 30.0589 125.313 29.8572 125.488 29.6828C125.663 29.5081 125.865 29.4232 126.093 29.4232H129.59C130.083 29.4232 130.501 29.2629 130.836 28.9396C131.173 28.6147 131.338 28.2057 131.338 27.7176ZM136.507 14.7085C136.507 14.131 136.798 13.8446 137.376 13.8446H141.72C142.693 13.8446 143.517 14.1821 144.186 14.8473C144.857 15.5153 145.194 16.3344 145.194 17.3049V22.4979C145.194 23.4593 144.857 24.2743 144.186 24.9466C143.513 25.6209 142.688 25.9584 141.711 25.9584H138.228V30.2781C138.228 30.8549 137.941 31.1424 137.367 31.1424C136.794 31.1424 136.507 30.8559 136.507 30.2781V14.7085ZM138.228 15.5637V24.2393H141.725C142.209 24.2393 142.622 24.0686 142.962 23.7333C143.302 23.3981 143.473 22.9857 143.473 22.5024V17.3004C143.473 16.808 143.306 16.3968 142.971 16.0648C142.634 15.7306 142.217 15.5637 141.725 15.5637H138.228ZM155.608 15.5637H152.111C151.629 15.5637 151.214 15.7341 150.874 16.0693C150.534 16.4048 150.363 16.818 150.363 17.3004V22.5024C150.363 22.9759 150.535 23.3836 150.879 23.7246C151.225 24.0676 151.636 24.2393 152.111 24.2393H153.86C154.344 24.2393 154.757 24.0686 155.097 23.7333C155.437 23.3981 155.608 22.9857 155.608 22.5024V15.5637ZM159.064 25.0945C159.064 25.6718 158.773 25.9584 158.195 25.9584C157.392 25.9584 156.729 25.6537 156.209 25.0406C155.572 25.6537 154.782 25.9584 153.855 25.9584H152.116C151.144 25.9584 150.319 25.6209 149.651 24.9554C148.98 24.2879 148.642 23.4693 148.642 22.4979V17.3049C148.642 16.3334 148.98 15.5153 149.651 14.8473C150.319 14.1821 151.143 13.8446 152.116 13.8446H156.46C157.038 13.8446 157.329 14.132 157.329 14.7085V23.362C157.329 23.9384 157.616 24.2257 158.195 24.2257C158.773 24.2257 159.064 24.5167 159.064 25.0945ZM171.177 21.6339V18.1691C171.177 16.9737 171.601 15.9534 172.446 15.1115C173.293 14.2675 174.32 13.8446 175.521 13.8446C176.74 13.8446 177.771 14.263 178.61 15.0979C179.446 15.9308 179.865 16.9574 179.865 18.1691V21.6339C179.865 22.8273 179.442 23.8496 178.596 24.6915C177.749 25.5357 176.722 25.9584 175.521 25.9584C174.32 25.9584 173.293 25.5357 172.446 24.6915C171.601 23.8496 171.177 22.8291 171.177 21.6339ZM178.143 21.6429V18.1778C178.143 17.4617 177.89 16.85 177.377 16.3424C176.864 15.8347 176.247 15.5812 175.521 15.5812C174.799 15.5812 174.178 15.8347 173.665 16.3424C173.152 16.85 172.899 17.4634 172.899 18.1778V21.6429C172.899 22.3662 173.154 22.9834 173.661 23.4872C174.165 23.9889 174.79 24.2392 175.521 24.2392C176.247 24.2392 176.863 23.9841 177.377 23.478C177.888 22.9741 178.143 22.3592 178.143 21.6429ZM183.312 14.7085C183.312 14.1309 183.604 13.8445 184.182 13.8445H188.526C189.498 13.8445 190.323 14.1823 190.991 14.8473C191.662 15.5145 192 16.3351 192 17.3048V22.4977C192 23.4584 191.662 24.2748 190.991 24.9465C190.319 25.6206 189.492 25.9583 188.517 25.9583H185.033V30.278C185.033 30.8541 184.747 31.1423 184.173 31.1423C183.599 31.1423 183.312 30.8559 183.312 30.278V14.7085ZM185.033 15.5636V24.2392H188.53C189.014 24.2392 189.428 24.0683 189.768 23.7333C190.107 23.3985 190.278 22.9856 190.278 22.5023V17.3003C190.278 16.808 190.111 16.3965 189.776 16.0648C189.44 15.731 189.021 15.5636 188.53 15.5636H185.033Z" fill="#00A0D1"/>
      <path fill-rule="evenodd" clip-rule="evenodd" d="M65.7958 8.63391C65.2192 8.63391 64.9307 8.92029 64.9307 9.49335C64.9307 10.0661 65.222 10.3528 65.8006 10.3528H96.2728C96.8509 10.3528 97.138 10.0664 97.138 9.49335C97.138 8.92055 96.8459 8.63391 96.268 8.63391H65.7958Z" fill="#234C9E"/>
    </g>
  </symbol>

  <symbol id="b0-01-profile-menu" viewBox="0 0 40 40" fill="none">
    <g>
      <circle cx="20" cy="20" r="20" fill="#F5F5F5"/>
      <path d="M28 29V27C28 25.9391 27.5786 24.9217 26.8284 24.1716C26.0783 23.4214 25.0609 23 24 23H16C14.9391 23 13.9217 23.4214 13.1716 24.1716C12.4214 24.9217 12 25.9391 12 27V29M24 15C24 17.2091 22.2091 19 20 19C17.7909 19 16 17.2091 16 15C16 12.7909 17.7909 11 20 11C22.2091 11 24 12.7909 24 15Z" stroke="#00A0D1" stroke-width="2" stroke-linecap="round" stroke-linejoin="round"/>
    </g>
  </symbol>

  <symbol id="b0-02-burger-menu" viewBox="0 0 40 40" fill="none">
    <g>
      <circle cx="20" cy="20" r="20" fill="#F5F5F5"/>
      <path d="M11 13.5C11 12.6716 11.6716 12 12.5 12H27.5C28.3284 12 29 12.6716 29 13.5C29 14.3284 28.3284 15 27.5 15H12.5C11.6716 15 11 14.3284 11 13.5Z" fill="#00A0D1"/>
      <path d="M11 25.5C11 24.6716 11.6716 24 12.5 24H27.5C28.3284 24 29 24.6716 29 25.5C29 26.3284 28.3284 27 27.5 27H12.5C11.6716 27 11 26.3284 11 25.5Z" fill="#00A0D1"/>
      <path d="M11 19.5C11 18.6716 11.6716 18 12.5 18H27.5C28.3284 18 29 18.6716 29 19.5C29 20.3284 28.3284 21 27.5 21H12.5C11.6716 21 11 20.3284 11 19.5Z" fill="#00A0D1"/>
    </g>
  </symbol>

  <symbol id="b0-03-close-menu" viewBox="0 0 40 40" fill="none">
    <g>
      <circle cx="20" cy="20" r="20" fill="#F5F5F5"/>
      <path d="M13.4812 26.5188C12.8397 25.8773 12.8397 24.8371 13.4812 24.1955L24.1955 13.4812C24.8371 12.8396 25.8773 12.8396 26.5188 13.4812C27.1604 14.1227 27.1604 15.1629 26.5188 15.8045L15.8045 26.5188C15.163 27.1604 14.1228 27.1604 13.4812 26.5188Z" fill="#234C9E"/>
      <path d="M26.5188 26.5188C27.1603 25.8773 27.1603 24.8371 26.5188 24.1955L15.8045 13.4812C15.1629 12.8396 14.1227 12.8396 13.4812 13.4812C12.8396 14.1227 12.8396 15.1629 13.4812 15.8045L24.1955 26.5188C24.837 27.1604 25.8772 27.1604 26.5188 26.5188Z" fill="#234C9E"/>
    </g>
  </symbol>

  <symbol id="b0-04-pic-edit" viewBox="0 0 30 30" fill="none">
    <g>
      <path d="M21.1447 1.01996C19.7847 -0.339986 17.5799 -0.339986 16.22 1.01996L2.41438 14.8255C2.31977 14.9201 2.25145 15.0374 2.21579 15.1662L0.400308 21.7205C0.325646 21.9892 0.401517 22.277 0.598602 22.4743C0.795989 22.6714 1.08376 22.7473 1.35248 22.6729L7.90676 20.8572C8.03553 20.8215 8.15282 20.7532 8.24743 20.6586L22.0527 6.85269C23.4106 5.49184 23.4106 3.28885 22.0527 1.928L21.1447 1.01996ZM4.10049 15.3285L15.3993 4.02942L19.0433 7.67337L7.74414 18.9725L4.10049 15.3285ZM3.3726 16.7891L6.28383 19.7007L2.2569 20.8164L3.3726 16.7891ZM20.9585 5.75845L20.1378 6.57913L16.4936 2.93488L17.3145 2.1142C18.0699 1.35881 19.2948 1.35881 20.0501 2.1142L20.9585 3.02224C21.7127 3.77853 21.7127 5.00245 20.9585 5.75845Z" fill="black"/>
    </g>
  </symbol>


  <!--!____1____HERO-FORM____1____-->

  <symbol id="b1-01-password-eye" viewBox="0 0 20 10">
    <g>
      <path d="M19.6564 4.59885C19.616 4.55163 18.647 3.42915 16.9856 2.30213C14.7656 0.796069 12.35 0 9.99993 0C7.65 0 5.23438 0.796069 3.01426 2.30213C1.35295 3.42911 0.383892 4.55163 0.34348 4.59885L0 4.99998L0.343524 5.40115C0.383936 5.44837 1.35299 6.57089 3.01431 7.69791C5.23443 9.20393 7.65004 10 9.99998 10C12.35 10 14.7656 9.20393 16.9856 7.69791C18.647 6.57089 19.616 5.44837 19.6564 5.40115L20 4.99998L19.6564 4.59885ZM9.99993 8.50275C7.90823 8.50275 6.20646 6.93143 6.20646 4.99998C6.20646 4.69738 6.24823 4.40363 6.32673 4.12334L5.46066 3.98875C5.3758 4.31319 5.33079 4.65181 5.33079 4.99998C5.33079 6.24759 5.90794 7.37295 6.82836 8.16093C5.64354 7.75681 4.63604 7.18972 3.87566 6.67685C2.93361 6.04153 2.22761 5.39896 1.82511 4.99998C2.22778 4.60087 2.9337 3.95839 3.87566 3.32311C4.63604 2.81024 5.64358 2.24315 6.82836 1.83899L7.40936 2.44371C8.08792 1.85702 8.99922 1.49721 9.99993 1.49721C12.0916 1.49721 13.7934 3.06853 13.7934 4.99998C13.7934 6.93143 12.0916 8.50275 9.99993 8.50275ZM16.1242 6.67685C15.3637 7.18972 14.3563 7.75681 13.1715 8.16093C14.0919 7.37299 14.669 6.24763 14.669 4.99994C14.669 3.75225 14.0919 2.62693 13.1715 1.83895C14.3563 2.24311 15.3637 2.81019 16.1242 3.32306C17.0663 3.95839 17.7723 4.60096 18.1748 4.9999C17.7721 5.39909 17.0662 6.04161 16.1242 6.67685Z"/>
    </g>
  </symbol>

  <symbol id="b1-02-zoom" viewBox="0 0 16 16" fill="#00A0D1">
    <g>
      <path d="M15.2734 11.8561L13.6072 10.156C13.2488 9.81656 12.7967 9.59167 12.309 9.51022C11.8213 9.42876 11.3203 9.49447 10.8703 9.69888L10.1459 8.97713C10.9996 7.84072 11.3894 6.4243 11.237 5.01302C11.0846 3.60173 10.4012 2.30037 9.32436 1.3709C8.24754 0.441437 6.85726 -0.0471187 5.4334 0.00358596C4.00954 0.0542906 2.65783 0.64049 1.65036 1.64418C0.642899 2.64787 0.0544947 3.99452 0.00359944 5.41305C-0.0472958 6.83157 0.443097 8.21664 1.37606 9.28943C2.30902 10.3622 3.61528 11.0431 5.03187 11.1949C6.44846 11.3468 7.8702 10.9584 9.01089 10.1079L9.72729 10.8216C9.49796 11.2704 9.41576 11.7796 9.4923 12.2774C9.56884 12.7752 9.80025 13.2365 10.1539 13.5963L11.8604 15.2964C12.3132 15.7469 12.927 16 13.5669 16C14.2069 16 14.8206 15.7469 15.2734 15.2964C15.5034 15.0724 15.6862 14.8048 15.811 14.5094C15.9357 14.214 16 13.8967 16 13.5763C16 13.2558 15.9357 12.9385 15.811 12.6431C15.6862 12.3477 15.5034 12.0802 15.2734 11.8561ZM8.44742 8.45587C7.88414 9.01563 7.16698 9.39651 6.38653 9.5504C5.60608 9.70429 4.79735 9.6243 4.06251 9.32051C3.32768 9.01673 2.69969 8.50279 2.2579 7.84362C1.8161 7.18445 1.58031 6.40962 1.58031 5.61701C1.58031 4.8244 1.8161 4.04957 2.2579 3.3904C2.69969 2.73123 3.32768 2.21729 4.06251 1.91351C4.79735 1.60972 5.60608 1.52973 6.38653 1.68362C7.16698 1.83751 7.88414 2.21839 8.44742 2.77815C8.82223 3.15061 9.1196 3.59309 9.3225 4.08023C9.5254 4.56736 9.62985 5.0896 9.62985 5.61701C9.62985 6.14442 9.5254 6.66666 9.3225 7.15379C9.1196 7.64093 8.82223 8.08341 8.44742 8.45587ZM14.1384 14.1256C14.0636 14.2007 13.9746 14.2604 13.8765 14.3011C13.7784 14.3418 13.6732 14.3628 13.5669 14.3628C13.4607 14.3628 13.3555 14.3418 13.2574 14.3011C13.1593 14.2604 13.0702 14.2007 12.9954 14.1256L11.2889 12.4255C11.2135 12.3509 11.1536 12.2622 11.1127 12.1645C11.0718 12.0668 11.0508 11.962 11.0508 11.8561C11.0508 11.7502 11.0718 11.6454 11.1127 11.5477C11.1536 11.45 11.2135 11.3613 11.2889 11.2867C11.3637 11.2116 11.4528 11.1519 11.5509 11.1112C11.6489 11.0705 11.7542 11.0495 11.8604 11.0495C11.9667 11.0495 12.0719 11.0705 12.17 11.1112C12.2681 11.1519 12.3571 11.2116 12.4319 11.2867L14.1384 12.9868C14.2139 13.0614 14.2738 13.1501 14.3146 13.2478C14.3555 13.3455 14.3765 13.4503 14.3765 13.5562C14.3765 13.6621 14.3555 13.7669 14.3146 13.8646C14.2738 13.9623 14.2139 14.051 14.1384 14.1256Z" fill="#00A0D1"/>
    </g>
  </symbol>

  <symbol id="b1-03-cbx-checked" width="11" height="9" viewBox="0 0 11 9" fill="none">
    <g>
      <path d="M4.125 6L1.375 3L0 4.5L4.125 9L11 1.5L9.625 0L4.125 6Z" fill="#1F2425"/>
    </g>
  </symbol>






  <!--!____1____HERO-PROFILE____1____-->

  <symbol id="b1-10-user-edit" viewBox="0 0 63 45">
    <g>
      <path fill-rule="evenodd" clip-rule="evenodd" d="M47 6H4C1.79086 6 0 7.79086 0 10V41C0 43.2091 1.79086 45 4 45H53C55.2091 45 57 43.2091 57 41V16H55V41C55 42.1046 54.1046 43 53 43H4C2.89543 43 2 42.1046 2 41V10C2 8.89543 2.89543 8 4 8H47V6Z" fill="black"/>
      <circle cx="28" cy="26" r="10" stroke="#1F2425" stroke-width="2"/>
      <rect x="49" y="6" width="14" height="2" fill="#1F2425"/>
      <rect x="57" width="14" height="2" transform="rotate(90 57 0)" fill="#1F2425"/>
    </g>
  </symbol>

  <symbol id="b1-11-icon-user" viewBox="0 0 18 18">
    <g>
      <path d="M8.92319 9.69886C8.9451 9.69886 8.96701 9.69886 8.99331 9.69886C9.00207 9.69886 9.01084 9.69886 9.0196 9.69886C9.03275 9.69886 9.05028 9.69886 9.06342 9.69886C10.3474 9.68022 11.386 9.29629 12.1529 8.56198C13.84 6.94426 13.5595 4.17103 13.5289 3.90638C13.4193 1.91964 12.315 0.96914 11.4035 0.525572C10.7243 0.193828 9.93109 0.0149098 9.04589 0H9.01522C9.01084 0 9.00207 0 8.99769 0H8.9714C8.48497 0 7.52966 0.0670943 6.61378 0.510662C5.69353 0.95423 4.57169 1.90473 4.46213 3.90638C4.43146 4.17103 4.151 6.94426 5.83814 8.56198C6.60064 9.29629 7.63921 9.68022 8.92319 9.69886ZM5.63217 3.99957C5.63217 3.98838 5.63656 3.9772 5.63656 3.96975C5.78117 1.29716 8.0117 1.01014 8.96701 1.01014H8.98454C8.99331 1.01014 9.00645 1.01014 9.0196 1.01014C10.2028 1.03251 12.2142 1.44253 12.3501 3.96975C12.3501 3.98093 12.3501 3.99211 12.3544 3.99957C12.3588 4.02566 12.6656 6.56033 11.272 7.89476C10.7199 8.42406 9.98368 8.68498 9.01522 8.69244C9.00645 8.69244 9.00207 8.69244 8.99331 8.69244C8.98454 8.69244 8.98016 8.69244 8.9714 8.69244C8.00732 8.68498 7.26673 8.42406 6.71896 7.89476C5.3298 6.56779 5.62779 4.02193 5.63217 3.99957Z"/>
      <path d="M17.9988 14.2984C17.9988 14.2947 17.9988 14.291 17.9988 14.2873C17.9988 14.2574 17.9944 14.2276 17.9944 14.1941C17.9681 13.456 17.9111 11.7302 16.0093 11.1785C15.9961 11.1748 15.9786 11.1711 15.9654 11.1673C13.9891 10.7387 12.3458 9.76954 12.3282 9.75836C12.0609 9.59807 11.6928 9.65399 11.5044 9.88136C11.316 10.1087 11.3817 10.4218 11.649 10.5821C11.7235 10.6269 13.4676 11.6594 15.6499 12.1365C16.671 12.4459 16.7849 13.374 16.8156 14.2239C16.8156 14.2574 16.8156 14.2873 16.82 14.3171C16.8244 14.6525 16.7981 15.1707 16.7279 15.4689C16.018 15.8118 13.2354 16.9971 9.00217 16.9971C4.78652 16.9971 1.98632 15.8081 1.27202 15.4651C1.20191 15.1669 1.17123 14.6488 1.18 14.3133C1.18 14.2835 1.18438 14.2537 1.18438 14.2202C1.21505 13.3703 1.32899 12.4421 2.35004 12.1328C4.53236 11.6556 6.27646 10.6194 6.35096 10.5784C6.61827 10.4181 6.684 10.105 6.49557 9.87764C6.30714 9.65026 5.93904 9.59435 5.67172 9.75463C5.65419 9.76581 4.01964 10.735 2.03452 11.1636C2.01699 11.1673 2.00385 11.1711 1.9907 11.1748C0.0888362 11.7302 0.031868 13.456 0.00557494 14.1903C0.00557494 14.2239 0.00557484 14.2537 0.00119267 14.2835C0.00119267 14.2873 0.00119267 14.291 0.00119267 14.2947C-0.0031895 14.4885 -0.00757158 15.4838 0.224684 15.9833C0.268505 16.0802 0.347384 16.1622 0.452557 16.2181C0.584022 16.2926 3.7348 17.9998 9.00656 17.9998C14.2783 17.9998 17.4291 16.2889 17.5606 16.2181C17.6613 16.1622 17.7446 16.0802 17.7884 15.9833C18.0075 15.4875 18.0032 14.4923 17.9988 14.2984Z"/>
    </g>
  </symbol>

  <symbol id="b1-12-icon-menu" viewBox="0 0 18 18">
    <g>
      <path d="M17.1022 15.5356H5.06564C4.56956 15.5356 4.16748 15.1335 4.16748 14.6374C4.16748 14.1413 4.56956 13.7393 5.06564 13.7393H17.1019C17.5979 13.7393 18 14.1413 18 14.6374C18 15.1335 17.5982 15.5356 17.1022 15.5356Z"/>
      <path d="M17.1022 9.89788H5.06564C4.56956 9.89788 4.16748 9.4958 4.16748 8.99972C4.16748 8.50364 4.56956 8.10156 5.06564 8.10156H17.1019C17.5979 8.10156 18 8.50364 18 8.99972C18.0003 9.4958 17.5982 9.89788 17.1022 9.89788Z"/>
      <path d="M17.1022 4.26018H5.06564C4.56956 4.26018 4.16748 3.85811 4.16748 3.36203C4.16748 2.86594 4.56956 2.46387 5.06564 2.46387H17.1019C17.5979 2.46387 18 2.86594 18 3.36203C18 3.85811 17.5982 4.26018 17.1022 4.26018Z"/>
      <path d="M1.20623 4.63804C1.87241 4.63804 2.41245 4.09799 2.41245 3.43181C2.41245 2.76563 1.87241 2.22559 1.20623 2.22559C0.540046 2.22559 0 2.76563 0 3.43181C0 4.09799 0.540046 4.63804 1.20623 4.63804Z"/>
      <path d="M1.20623 10.2064C1.87241 10.2064 2.41245 9.66635 2.41245 9.00017C2.41245 8.33399 1.87241 7.79395 1.20623 7.79395C0.540046 7.79395 0 8.33399 0 9.00017C0 9.66635 0.540046 10.2064 1.20623 10.2064Z"/>
      <path d="M1.20623 15.7748C1.87241 15.7748 2.41245 15.2347 2.41245 14.5685C2.41245 13.9024 1.87241 13.3623 1.20623 13.3623C0.540046 13.3623 0 13.9024 0 14.5685C0 15.2347 0.540046 15.7748 1.20623 15.7748Z"/>
    </g>
  </symbol>

  <symbol id="b1-13-icon-message" viewBox="0 0 18 18">
    <g>
      <path fill-rule="evenodd" clip-rule="evenodd" d="M8.59351 1.50578C4.17899 1.71427 0.691618 5.36331 0.705018 9.74965C0.709101 11.0868 1.0343 12.347 1.60746 13.4603L1.72002 13.679L0.826832 17.9796L5.07865 16.9804L5.30712 17.0933C6.38268 17.6247 7.5907 17.9318 8.87076 17.9512C13.3852 18.0196 17.1502 14.4621 17.2908 9.98775C17.4417 5.18839 13.4492 1.27639 8.59351 1.50578ZM4.17764e-05 9.75177C-0.0144969 4.99261 3.76747 1.03363 8.55998 0.807285C13.8271 0.558465 18.1591 4.80316 17.9955 10.0095C17.8428 14.8666 13.7584 18.7246 8.85999 18.6504C7.47196 18.6294 6.16044 18.2961 4.99279 17.7192L0.44792 18.7873C0.198679 18.8458 -0.0276034 18.6279 0.0240848 18.379L0.979601 13.7783C0.357259 12.5695 0.00446848 11.2013 4.17764e-05 9.75177Z"/>
      <path fill-rule="evenodd" clip-rule="evenodd" d="M0.705018 9.74965C0.691618 5.36331 4.17899 1.71427 8.59351 1.50578C13.4492 1.27639 17.4417 5.18839 17.2908 9.98775C17.1502 14.4621 13.3852 18.0196 8.87076 17.9512C7.5907 17.9318 6.38268 17.6247 5.30712 17.0933L5.07865 16.9804L0.826832 17.9796L1.72002 13.679L1.60746 13.4603C1.0343 12.347 0.709101 11.0868 0.705018 9.74965ZM5.54925 16.6111L5.14481 16.4113L1.53057 17.2607L2.2903 13.6024L2.09105 13.2154C1.53166 12.1287 1.24797 10.952 1.24797 9.72414C1.24797 7.67154 2.05526 5.73834 3.51846 4.28691C4.96979 2.84731 6.94766 2.03471 9.00013 2.03471C11.0694 2.03476 13.0183 2.83552 14.4815 4.28685C15.9447 5.73824 16.752 7.67145 16.7521 9.72399C16.752 11.7599 15.9328 13.7218 14.4815 15.1614C13.0183 16.6127 11.0693 17.4135 9 17.4135C7.78961 17.4135 6.6267 17.1435 5.54925 16.6111Z"/>
    </g>
  </symbol>

  <symbol id="b1-14-icon-support" viewBox="0 0 18 18">
    <mask id="path-1-outside-1_549_3665" maskUnits="userSpaceOnUse" x="-1" y="-1" width="20" height="20">
      <rect fill="white" x="-1" y="-1" width="20" height="20"/>
      <path d="M14.4048 7.20298C16.3868 7.20965 17.9991 5.60821 18.0058 3.62618C18.0067 3.32446 17.9697 3.02397 17.8955 2.73151C17.8555 2.57065 17.6927 2.47276 17.5318 2.51275C17.479 2.52596 17.4308 2.55325 17.3923 2.59164L15.5242 4.4585L14.0421 3.96456L13.5477 2.48276L15.4158 0.614295C15.533 0.497015 15.5329 0.307021 15.4156 0.189864C15.3769 0.151223 15.3283 0.123816 15.2751 0.11073C13.3529 -0.376045 11.4003 0.787499 10.9135 2.70954C10.8396 3.00113 10.8026 3.30088 10.8036 3.60173C10.8044 3.83802 10.8287 4.07357 10.8766 4.30492L4.30432 10.8771C4.07296 10.8293 3.83742 10.805 3.60125 10.8041C1.6123 10.8041 0 12.4164 0 14.4053C0 16.3942 1.6123 18.0065 3.60125 18.0065C5.59008 18.0065 7.20238 16.3942 7.20238 14.4053C7.20164 14.1691 7.17719 13.9335 7.12942 13.7022L8.70283 12.1288L9.39095 12.8169C9.50823 12.934 9.69811 12.934 9.81539 12.8169L9.96538 12.6668C10.097 12.536 10.3097 12.536 10.4413 12.6668C10.5728 12.7979 10.573 13.0107 10.4419 13.1422L10.2913 13.2928C10.1741 13.4099 10.1741 13.5999 10.2913 13.7171L13.8712 17.297C14.8128 18.2472 16.3463 18.2541 17.2965 17.3125C18.2466 16.371 18.2535 14.8373 17.312 13.8872C17.3069 13.882 17.3017 13.8768 17.2965 13.8717L13.7166 10.2919C13.5995 10.1747 13.4095 10.1747 13.2923 10.2919L13.1423 10.4419C13.0106 10.5728 12.798 10.5728 12.6663 10.4419C12.5349 10.3108 12.5346 10.098 12.6657 9.9666L12.8164 9.81586C12.9336 9.6987 12.9336 9.50871 12.8164 9.39155L12.1283 8.70343L13.7017 7.13002C13.933 7.17779 14.1686 7.20224 14.4048 7.20298ZM15.5839 17.4064C15.3658 17.406 15.1497 17.3666 14.9456 17.2899L17.2894 14.9461C17.6431 15.8869 17.1671 16.9363 16.2263 17.2899C16.021 17.3671 15.8034 17.4066 15.5839 17.4064ZM12.1841 9.60673C11.8517 10.0031 11.9038 10.594 12.3003 10.9262C12.6486 11.2182 13.1564 11.2179 13.5044 10.9253L16.8722 14.2961C16.9088 14.3328 16.943 14.3714 16.976 14.4107L14.4102 16.9765C14.3708 16.9435 14.3322 16.9093 14.2955 16.8727L10.9251 13.502C11.2574 13.1056 11.2053 12.5148 10.8089 12.1826C10.4606 11.8905 9.95267 11.8909 9.60465 12.1833L9.12454 11.7032L11.7038 9.12773L12.1841 9.60673ZM13.3959 6.58843L6.58808 13.3949C6.51339 13.4695 6.48339 13.5777 6.50882 13.6801C6.92053 15.2969 5.94353 16.9414 4.32654 17.353C2.70967 17.7647 1.06515 16.7877 0.653437 15.1708C0.241845 13.5539 1.21885 11.9094 2.83584 11.4977C3.32496 11.3732 3.83742 11.3732 4.32654 11.4977C4.42888 11.5227 4.5369 11.4927 4.61171 11.4185L11.4179 4.61195C11.4925 4.53738 11.5225 4.42911 11.4968 4.3269C11.0879 2.72892 12.0519 1.10206 13.6498 0.693058C13.9518 0.6159 14.2641 0.586271 14.5752 0.605653L12.9922 2.18931C12.9118 2.26955 12.8837 2.38844 12.9196 2.49621L13.5197 4.2969C13.5497 4.3864 13.6201 4.45677 13.7097 4.48652L15.5104 5.08675C15.6181 5.12267 15.7369 5.09465 15.8173 5.01441L17.4003 3.43137C17.4039 3.48865 17.4058 3.54531 17.4058 3.60173C17.4142 5.25069 16.0843 6.59423 14.4354 6.60275C14.1804 6.60399 13.9264 6.57263 13.6795 6.50942C13.5771 6.48387 13.4689 6.51374 13.3943 6.58831L13.3959 6.58843Z"/>
      <path d="M4.75881 12.75C4.70449 12.6597 4.60696 12.6045 4.50154 12.6045H2.70097C2.59567 12.6045 2.49802 12.6597 2.44382 12.75L1.54348 14.2505C1.48632 14.3455 1.48632 14.4644 1.54348 14.5596L2.44382 16.0601C2.49802 16.1503 2.59567 16.2056 2.70097 16.2056H4.50154C4.60696 16.2056 4.70449 16.1503 4.75881 16.0601L5.65903 14.5596C5.71619 14.4644 5.71619 14.3455 5.65903 14.2505L4.75881 12.75ZM4.33179 15.6054H2.87085L2.15062 14.4051L2.87085 13.2046H4.33179L5.05201 14.4051L4.33179 15.6054Z"/>
      <path d="M12.5167 5.91454L5.91454 12.5168L5.49011 12.0924L12.0924 5.49023L12.5167 5.91454Z"/>
      <path d="M0.0571369 1.65161L1.25759 3.75229C1.29809 3.82327 1.36586 3.87463 1.44512 3.8945L2.56508 4.1745L6.40632 8.01573L6.83075 7.59143L2.92939 3.69019C2.891 3.65167 2.84285 3.62439 2.79014 3.61118L1.714 3.34119L0.691932 1.55161L1.5682 0.675345L3.35852 1.6984L3.62863 2.77454C3.64172 2.82738 3.66912 2.87565 3.70752 2.91404L7.60888 6.8154L8.03318 6.39097L4.19195 2.54973L3.91195 1.43038C3.89208 1.351 3.84072 1.2831 3.76974 1.24249L1.66894 0.0421548C1.55178 -0.0245098 1.40438 -0.0047573 1.30883 0.0904249L0.108493 1.29088C0.0119532 1.38582 -0.00903384 1.53347 0.0571369 1.65161Z"/>
      <path d="M15.5348 15.0937L15.1104 15.5181L12.1095 12.5172L12.5338 12.0928L15.5348 15.0937Z"/>
    </mask>
    <path d="M14.4048 7.20298C16.3868 7.20965 17.9991 5.60821 18.0058 3.62618C18.0067 3.32446 17.9697 3.02397 17.8955 2.73151C17.8555 2.57065 17.6927 2.47276 17.5318 2.51275C17.479 2.52596 17.4308 2.55325 17.3923 2.59164L15.5242 4.4585L14.0421 3.96456L13.5477 2.48276L15.4158 0.614295C15.533 0.497015 15.5329 0.307021 15.4156 0.189864C15.3769 0.151223 15.3283 0.123816 15.2751 0.11073C13.3529 -0.376045 11.4003 0.787499 10.9135 2.70954C10.8396 3.00113 10.8026 3.30088 10.8036 3.60173C10.8044 3.83802 10.8287 4.07357 10.8766 4.30492L4.30432 10.8771C4.07296 10.8293 3.83742 10.805 3.60125 10.8041C1.6123 10.8041 0 12.4164 0 14.4053C0 16.3942 1.6123 18.0065 3.60125 18.0065C5.59008 18.0065 7.20238 16.3942 7.20238 14.4053C7.20164 14.1691 7.17719 13.9335 7.12942 13.7022L8.70283 12.1288L9.39095 12.8169C9.50823 12.934 9.69811 12.934 9.81539 12.8169L9.96538 12.6668C10.097 12.536 10.3097 12.536 10.4413 12.6668C10.5728 12.7979 10.573 13.0107 10.4419 13.1422L10.2913 13.2928C10.1741 13.4099 10.1741 13.5999 10.2913 13.7171L13.8712 17.297C14.8128 18.2472 16.3463 18.2541 17.2965 17.3125C18.2466 16.371 18.2535 14.8373 17.312 13.8872C17.3069 13.882 17.3017 13.8768 17.2965 13.8717L13.7166 10.2919C13.5995 10.1747 13.4095 10.1747 13.2923 10.2919L13.1423 10.4419C13.0106 10.5728 12.798 10.5728 12.6663 10.4419C12.5349 10.3108 12.5346 10.098 12.6657 9.9666L12.8164 9.81586C12.9336 9.6987 12.9336 9.50871 12.8164 9.39155L12.1283 8.70343L13.7017 7.13002C13.933 7.17779 14.1686 7.20224 14.4048 7.20298ZM15.5839 17.4064C15.3658 17.406 15.1497 17.3666 14.9456 17.2899L17.2894 14.9461C17.6431 15.8869 17.1671 16.9363 16.2263 17.2899C16.021 17.3671 15.8034 17.4066 15.5839 17.4064ZM12.1841 9.60673C11.8517 10.0031 11.9038 10.594 12.3003 10.9262C12.6486 11.2182 13.1564 11.2179 13.5044 10.9253L16.8722 14.2961C16.9088 14.3328 16.943 14.3714 16.976 14.4107L14.4102 16.9765C14.3708 16.9435 14.3322 16.9093 14.2955 16.8727L10.9251 13.502C11.2574 13.1056 11.2053 12.5148 10.8089 12.1826C10.4606 11.8905 9.95267 11.8909 9.60465 12.1833L9.12454 11.7032L11.7038 9.12773L12.1841 9.60673ZM13.3959 6.58843L6.58808 13.3949C6.51339 13.4695 6.48339 13.5777 6.50882 13.6801C6.92053 15.2969 5.94353 16.9414 4.32654 17.353C2.70967 17.7647 1.06515 16.7877 0.653437 15.1708C0.241845 13.5539 1.21885 11.9094 2.83584 11.4977C3.32496 11.3732 3.83742 11.3732 4.32654 11.4977C4.42888 11.5227 4.5369 11.4927 4.61171 11.4185L11.4179 4.61195C11.4925 4.53738 11.5225 4.42911 11.4968 4.3269C11.0879 2.72892 12.0519 1.10206 13.6498 0.693058C13.9518 0.6159 14.2641 0.586271 14.5752 0.605653L12.9922 2.18931C12.9118 2.26955 12.8837 2.38844 12.9196 2.49621L13.5197 4.2969C13.5497 4.3864 13.6201 4.45677 13.7097 4.48652L15.5104 5.08675C15.6181 5.12267 15.7369 5.09465 15.8173 5.01441L17.4003 3.43137C17.4039 3.48865 17.4058 3.54531 17.4058 3.60173C17.4142 5.25069 16.0843 6.59423 14.4354 6.60275C14.1804 6.60399 13.9264 6.57263 13.6795 6.50942C13.5771 6.48387 13.4689 6.51374 13.3943 6.58831L13.3959 6.58843Z"/>
    <path d="M4.75881 12.75C4.70449 12.6597 4.60696 12.6045 4.50154 12.6045H2.70097C2.59567 12.6045 2.49802 12.6597 2.44382 12.75L1.54348 14.2505C1.48632 14.3455 1.48632 14.4644 1.54348 14.5596L2.44382 16.0601C2.49802 16.1503 2.59567 16.2056 2.70097 16.2056H4.50154C4.60696 16.2056 4.70449 16.1503 4.75881 16.0601L5.65903 14.5596C5.71619 14.4644 5.71619 14.3455 5.65903 14.2505L4.75881 12.75ZM4.33179 15.6054H2.87085L2.15062 14.4051L2.87085 13.2046H4.33179L5.05201 14.4051L4.33179 15.6054Z"/>
    <path d="M12.5167 5.91454L5.91454 12.5168L5.49011 12.0924L12.0924 5.49023L12.5167 5.91454Z"/>
    <path d="M0.0571369 1.65161L1.25759 3.75229C1.29809 3.82327 1.36586 3.87463 1.44512 3.8945L2.56508 4.1745L6.40632 8.01573L6.83075 7.59143L2.92939 3.69019C2.891 3.65167 2.84285 3.62439 2.79014 3.61118L1.714 3.34119L0.691932 1.55161L1.5682 0.675345L3.35852 1.6984L3.62863 2.77454C3.64172 2.82738 3.66912 2.87565 3.70752 2.91404L7.60888 6.8154L8.03318 6.39097L4.19195 2.54973L3.91195 1.43038C3.89208 1.351 3.84072 1.2831 3.76974 1.24249L1.66894 0.0421548C1.55178 -0.0245098 1.40438 -0.0047573 1.30883 0.0904249L0.108493 1.29088C0.0119532 1.38582 -0.00903384 1.53347 0.0571369 1.65161Z"/>
    <path d="M15.5348 15.0937L15.1104 15.5181L12.1095 12.5172L12.5338 12.0928L15.5348 15.0937Z"/>
    <path d="M14.4048 7.20298C16.3868 7.20965 17.9991 5.60821 18.0058 3.62618C18.0067 3.32446 17.9697 3.02397 17.8955 2.73151C17.8555 2.57065 17.6927 2.47276 17.5318 2.51275C17.479 2.52596 17.4308 2.55325 17.3923 2.59164L15.5242 4.4585L14.0421 3.96456L13.5477 2.48276L15.4158 0.614295C15.533 0.497015 15.5329 0.307021 15.4156 0.189864C15.3769 0.151223 15.3283 0.123816 15.2751 0.11073C13.3529 -0.376045 11.4003 0.787499 10.9135 2.70954C10.8396 3.00113 10.8026 3.30088 10.8036 3.60173C10.8044 3.83802 10.8287 4.07357 10.8766 4.30492L4.30432 10.8771C4.07296 10.8293 3.83742 10.805 3.60125 10.8041C1.6123 10.8041 0 12.4164 0 14.4053C0 16.3942 1.6123 18.0065 3.60125 18.0065C5.59008 18.0065 7.20238 16.3942 7.20238 14.4053C7.20164 14.1691 7.17719 13.9335 7.12942 13.7022L8.70283 12.1288L9.39095 12.8169C9.50823 12.934 9.69811 12.934 9.81539 12.8169L9.96538 12.6668C10.097 12.536 10.3097 12.536 10.4413 12.6668C10.5728 12.7979 10.573 13.0107 10.4419 13.1422L10.2913 13.2928C10.1741 13.4099 10.1741 13.5999 10.2913 13.7171L13.8712 17.297C14.8128 18.2472 16.3463 18.2541 17.2965 17.3125C18.2466 16.371 18.2535 14.8373 17.312 13.8872C17.3069 13.882 17.3017 13.8768 17.2965 13.8717L13.7166 10.2919C13.5995 10.1747 13.4095 10.1747 13.2923 10.2919L13.1423 10.4419C13.0106 10.5728 12.798 10.5728 12.6663 10.4419C12.5349 10.3108 12.5346 10.098 12.6657 9.9666L12.8164 9.81586C12.9336 9.6987 12.9336 9.50871 12.8164 9.39155L12.1283 8.70343L13.7017 7.13002C13.933 7.17779 14.1686 7.20224 14.4048 7.20298ZM15.5839 17.4064C15.3658 17.406 15.1497 17.3666 14.9456 17.2899L17.2894 14.9461C17.6431 15.8869 17.1671 16.9363 16.2263 17.2899C16.021 17.3671 15.8034 17.4066 15.5839 17.4064ZM12.1841 9.60673C11.8517 10.0031 11.9038 10.594 12.3003 10.9262C12.6486 11.2182 13.1564 11.2179 13.5044 10.9253L16.8722 14.2961C16.9088 14.3328 16.943 14.3714 16.976 14.4107L14.4102 16.9765C14.3708 16.9435 14.3322 16.9093 14.2955 16.8727L10.9251 13.502C11.2574 13.1056 11.2053 12.5148 10.8089 12.1826C10.4606 11.8905 9.95267 11.8909 9.60465 12.1833L9.12454 11.7032L11.7038 9.12773L12.1841 9.60673ZM13.3959 6.58843L6.58808 13.3949C6.51339 13.4695 6.48339 13.5777 6.50882 13.6801C6.92053 15.2969 5.94353 16.9414 4.32654 17.353C2.70967 17.7647 1.06515 16.7877 0.653437 15.1708C0.241845 13.5539 1.21885 11.9094 2.83584 11.4977C3.32496 11.3732 3.83742 11.3732 4.32654 11.4977C4.42888 11.5227 4.5369 11.4927 4.61171 11.4185L11.4179 4.61195C11.4925 4.53738 11.5225 4.42911 11.4968 4.3269C11.0879 2.72892 12.0519 1.10206 13.6498 0.693058C13.9518 0.6159 14.2641 0.586271 14.5752 0.605653L12.9922 2.18931C12.9118 2.26955 12.8837 2.38844 12.9196 2.49621L13.5197 4.2969C13.5497 4.3864 13.6201 4.45677 13.7097 4.48652L15.5104 5.08675C15.6181 5.12267 15.7369 5.09465 15.8173 5.01441L17.4003 3.43137C17.4039 3.48865 17.4058 3.54531 17.4058 3.60173C17.4142 5.25069 16.0843 6.59423 14.4354 6.60275C14.1804 6.60399 13.9264 6.57263 13.6795 6.50942C13.5771 6.48387 13.4689 6.51374 13.3943 6.58831L13.3959 6.58843Z"  stroke-width="0.2" mask="url(#path-1-outside-1_549_3665)"/>
    <path d="M4.75881 12.75C4.70449 12.6597 4.60696 12.6045 4.50154 12.6045H2.70097C2.59567 12.6045 2.49802 12.6597 2.44382 12.75L1.54348 14.2505C1.48632 14.3455 1.48632 14.4644 1.54348 14.5596L2.44382 16.0601C2.49802 16.1503 2.59567 16.2056 2.70097 16.2056H4.50154C4.60696 16.2056 4.70449 16.1503 4.75881 16.0601L5.65903 14.5596C5.71619 14.4644 5.71619 14.3455 5.65903 14.2505L4.75881 12.75ZM4.33179 15.6054H2.87085L2.15062 14.4051L2.87085 13.2046H4.33179L5.05201 14.4051L4.33179 15.6054Z"  stroke-width="0.2" mask="url(#path-1-outside-1_549_3665)"/>
    <path d="M12.5167 5.91454L5.91454 12.5168L5.49011 12.0924L12.0924 5.49023L12.5167 5.91454Z" stroke-width="0.2" mask="url(#path-1-outside-1_549_3665)"/>
    <path d="M0.0571369 1.65161L1.25759 3.75229C1.29809 3.82327 1.36586 3.87463 1.44512 3.8945L2.56508 4.1745L6.40632 8.01573L6.83075 7.59143L2.92939 3.69019C2.891 3.65167 2.84285 3.62439 2.79014 3.61118L1.714 3.34119L0.691932 1.55161L1.5682 0.675345L3.35852 1.6984L3.62863 2.77454C3.64172 2.82738 3.66912 2.87565 3.70752 2.91404L7.60888 6.8154L8.03318 6.39097L4.19195 2.54973L3.91195 1.43038C3.89208 1.351 3.84072 1.2831 3.76974 1.24249L1.66894 0.0421548C1.55178 -0.0245098 1.40438 -0.0047573 1.30883 0.0904249L0.108493 1.29088C0.0119532 1.38582 -0.00903384 1.53347 0.0571369 1.65161Z" stroke-width="0.2" mask="url(#path-1-outside-1_549_3665)"/>
    <path d="M15.5348 15.0937L15.1104 15.5181L12.1095 12.5172L12.5338 12.0928L15.5348 15.0937Z" stroke-width="0.2" mask="url(#path-1-outside-1_549_3665)"/>
  </symbol>

  <symbol id="b1-15-icon-exit" viewBox="0 0 18 18">
    <g>
      <path d="M10.3621 5.79589C10.4814 5.67892 10.4814 5.48985 10.3621 5.37288C10.2428 5.25591 10.05 5.25591 9.93074 5.37288L6.88629 8.35814C6.82863 8.41378 6.7966 8.48976 6.7966 8.56934C6.7966 8.57143 6.79782 8.57353 6.79782 8.57562C6.79782 8.57771 6.7966 8.57951 6.7966 8.5819C6.7966 8.68152 6.84938 8.76528 6.92565 8.81973L9.94324 11.7787C10.0625 11.8956 10.2553 11.8956 10.3746 11.7787C10.4939 11.6617 10.4939 11.4726 10.3746 11.3557L7.85097 8.88106L18.6949 8.88105C18.8636 8.88105 19 8.74733 19 8.5819C19 8.41647 18.8636 8.28275 18.6949 8.28275L7.82534 8.28275L10.3621 5.79589Z" stroke-width="0.3"/>
      <path d="M14.1186 10.6756C14.1186 10.5102 13.9823 10.3765 13.8136 10.3765C13.6448 10.3765 13.5085 10.5102 13.5085 10.6756L13.5085 13.5647C13.5085 14.117 13.0608 14.5647 12.5085 14.5647L2.61016 14.5647C2.05787 14.5647 1.61016 14.117 1.61016 13.5647L1.61017 3.59832C1.61017 3.04603 2.05789 2.59832 2.61017 2.59832L12.5085 2.59832C13.0608 2.59832 13.5085 3.04603 13.5085 3.59832L13.5085 6.48738C13.5085 6.65282 13.6449 6.78654 13.8136 6.78654C13.9823 6.78654 14.1186 6.65282 14.1186 6.48738L14.1187 3C14.1187 2.44772 13.6709 2 13.1187 2L2 2C1.44772 2 1 2.44772 1 3L0.999988 14.163C0.999988 14.7153 1.4477 15.163 1.99999 15.163L13.1186 15.163C13.6709 15.163 14.1186 14.7153 14.1186 14.163L14.1186 10.6756Z" stroke-width="0.3"/>
    </g>
  </symbol>

  <symbol id="b1-16-icon-service" viewBox="0 0 40 40">
    <g>
      <path d="M26.8405 27.7306V27.0038C27.0459 26.8378 27.2434 26.6561 27.433 26.4665C28.9512 24.7949 29.9071 22.6895 30.1665 20.4464C31.531 20.2385 32.7608 19.5073 33.5953 18.4081C34.7409 16.7885 34.8436 14.4578 33.8877 11.5347C33.8315 11.3661 33.7202 11.2213 33.5716 11.1238L33.1371 10.8315C33.2012 8.19396 32.2897 5.62552 30.5774 3.61841C28.4521 1.22457 25.1893 0.0158009 20.8677 0C16.5541 0 13.2833 1.22457 11.158 3.58681C9.44571 5.59392 8.5342 8.16235 8.59829 10.7999L8.16376 11.0922C8.01523 11.1897 7.90394 11.3345 7.84775 11.5031C6.89179 14.442 6.9945 16.7569 8.14006 18.3765C8.97149 19.4834 10.2013 20.223 11.5689 20.4385C11.8294 22.6852 12.7883 24.7935 14.3103 26.4665C14.4985 26.6557 14.6962 26.8351 14.9029 27.0038V27.7306C11.877 28.3152 -0.202823 31.1515 0.00258851 39.21C0.00258851 39.6463 0.356332 40 0.792635 40H40.9507C41.387 40 41.7407 39.6463 41.7407 39.21C41.9461 31.1515 29.8663 28.3152 26.8405 27.7306ZM11.0948 18.6767C10.4235 18.4512 9.83836 18.0235 9.41994 17.4521L9.45944 17.46C8.66939 16.3065 8.59829 14.5605 9.30143 12.2536L9.87816 11.8665C10.1208 11.7045 10.2544 11.4221 10.2258 11.1317C10.0929 8.77049 10.8609 6.44667 12.3747 4.62967C14.1602 2.60715 17.0281 1.59589 20.8677 1.58009C24.7073 1.56429 27.5752 2.60715 29.3923 4.62967C30.9061 6.44667 31.6741 8.77049 31.5412 11.1317C31.5126 11.4221 31.6462 11.7045 31.8888 11.8665L32.4656 12.2536C33.1687 14.5526 33.1213 16.3065 32.3076 17.46C31.8863 18.0319 31.2986 18.4596 30.6248 18.6846C31.5778 17.6002 32.0434 16.172 31.9125 14.7343C31.7645 13.8693 31.3136 13.0853 30.6406 12.5222C30.3009 4.62177 24.7626 3.73691 22.3767 3.73691C21.8717 3.73543 21.3672 3.77247 20.8677 3.84752C20.3683 3.77237 19.8638 3.73543 19.3587 3.73691C16.9886 3.73691 11.4583 4.60596 11.0948 12.5222C10.4175 13.0808 9.96102 13.8621 9.80706 14.7264C9.67532 16.1642 10.1411 17.5928 11.0948 18.6767ZM29.0684 12.1983C25.7533 12.3899 22.4589 11.5628 19.6273 9.82817C19.3069 9.6031 18.8699 9.64685 18.6003 9.93087C17.0202 11.6295 14.1365 12.0245 12.746 12.1114C13.1727 6.52577 16.5541 5.30911 19.3982 5.30911C19.8509 5.30585 20.303 5.34288 20.7492 5.41971C20.8535 5.44104 20.9609 5.44104 21.0652 5.41971C21.5114 5.34308 21.9635 5.30604 22.4162 5.30911C25.2367 5.30911 28.6339 6.55738 29.0289 12.1904L29.0684 12.1983ZM13.0225 18.8268L13.0541 18.8347C13.0558 18.6399 12.9855 18.4514 12.8566 18.3054C11.7743 17.065 11.2765 15.9352 11.4109 15.003C11.4752 14.4837 11.7317 14.0074 12.1298 13.6678C13.1727 13.6678 16.8701 13.4703 19.2402 11.4241C21.9095 12.9586 24.9308 13.7752 28.0097 13.7942C28.5391 13.7942 29.0763 13.7942 29.6372 13.7073C30.0244 14.0379 30.2773 14.4987 30.3483 15.003C30.4826 15.9194 29.9848 17.065 28.9025 18.3054C28.7736 18.4514 28.7033 18.6399 28.705 18.8347C28.705 18.8347 28.705 18.9927 28.705 19.2455L24.1069 21.7104C23.1944 20.8465 21.7542 20.8859 20.8903 21.7984C20.0264 22.7109 20.0658 24.1511 20.9783 25.015C21.8908 25.8789 23.331 25.8395 24.1949 24.927C24.5952 24.5041 24.8182 23.9439 24.8179 23.3616C24.8215 23.2905 24.8215 23.2194 24.8179 23.1483L28.4442 21.2048C28.133 22.7627 27.4007 24.2054 26.3269 25.3763C24.9264 26.7247 23.0306 27.4338 21.0889 27.3356H20.6939C18.7564 27.4318 16.8647 26.7261 15.4638 25.3842C12.9672 22.8955 13.0225 18.8663 13.0225 18.8268ZM23.2378 23.3616C23.2378 23.75 22.923 24.0648 22.5347 24.0648C22.1464 24.0648 21.8316 23.75 21.8316 23.3616C21.8316 22.9733 22.1464 22.6585 22.5347 22.6585C22.923 22.6585 23.2378 22.9733 23.2378 23.3616ZM20.0777 38.3725H1.60638C2.23052 32.4393 11.877 29.9585 14.895 29.3186V30.7328C14.895 32.5262 17.0755 33.893 20.0777 34.1221V38.3725ZM16.475 30.7328V30.7091V28.0071C17.7883 28.6161 19.2228 28.9187 20.6702 28.892H21.0652C22.5126 28.9187 23.9471 28.6161 25.2604 28.0071V30.7328C25.2604 31.4833 23.546 32.5657 20.8677 32.5657C18.1894 32.5657 16.475 31.4833 16.475 30.7328ZM21.6577 38.3962V34.1142C24.6599 33.9088 26.8405 32.5341 26.8405 30.7249V29.3423C29.8821 29.9743 39.4812 32.4551 40.129 38.3962H21.6577Z"/>
    </g>
  </symbol>

  <symbol id="b1-17-icon-settings" viewBox="0 0 40 40">
    <g>
      <path d="M37.9526 15.801L35.145 15.3247C34.8525 14.3805 34.4765 13.4697 34.0169 12.6007L35.6714 10.2861C36.3733 9.30013 36.2647 7.95483 35.404 7.10252L32.9139 4.61246C32.446 4.14453 31.8277 3.8855 31.1676 3.8855C30.6495 3.8855 30.1565 4.04426 29.7387 4.34507L27.4157 5.99954C26.5133 5.52326 25.5691 5.13053 24.5914 4.83807L24.1235 2.06391C23.923 0.869015 22.8952 0 21.6836 0H18.1658C16.9541 0 15.9264 0.869015 15.7258 2.06391L15.2412 4.90492C14.3053 5.19738 13.3945 5.58175 12.5255 6.04968L10.2276 4.39521C9.80984 4.0944 9.30849 3.93563 8.79042 3.93563C8.1303 3.93563 7.50361 4.19467 7.04403 4.6626L4.54562 7.15266C3.69331 8.00496 3.57633 9.35026 4.27823 10.3363L5.94941 12.6843C5.48983 13.5616 5.12217 14.4724 4.83807 15.4167L2.06391 15.8846C0.869015 16.0851 0 17.1129 0 18.3245V21.8424C0 23.054 0.869015 24.0817 2.06391 24.2823L4.90492 24.7669C5.19738 25.7028 5.58175 26.6136 6.04968 27.4826L4.40357 29.7721C3.70167 30.7581 3.8103 32.1034 4.67095 32.9557L7.16102 35.4458C7.62895 35.9137 8.24728 36.1727 8.9074 36.1727C9.42547 36.1727 9.91847 36.014 10.3363 35.7132L12.6843 34.042C13.5282 34.4848 14.4139 34.8442 15.3247 35.1283L15.7927 37.9358C15.9932 39.1307 17.021 39.9997 18.2326 39.9997H21.7588C22.9704 39.9997 23.9982 39.1307 24.1987 37.9358L24.675 35.1283C25.6192 34.8358 26.53 34.4598 27.399 34.0002L29.7136 35.6547C30.1314 35.9555 30.6328 36.1142 31.1508 36.1142C31.811 36.1142 32.4293 35.8552 32.8972 35.3873L35.3873 32.8972C36.2396 32.0449 36.3566 30.6996 35.6547 29.7136L34.0002 27.3907C34.4598 26.5133 34.8442 25.6025 35.1283 24.6666L37.9358 24.1987C39.1307 23.9982 39.9998 22.9704 39.9998 21.7588V18.241C40.0165 17.0293 39.1474 16.0016 37.9526 15.801ZM37.7604 21.7588C37.7604 21.8674 37.6852 21.9593 37.5765 21.976L34.0671 22.561C33.6242 22.6362 33.2732 22.962 33.1646 23.3882C32.8471 24.6165 32.3624 25.7947 31.7107 26.8893C31.4851 27.2737 31.5018 27.75 31.7608 28.1176L33.8247 31.0255C33.8832 31.1091 33.8749 31.2344 33.7997 31.3096L31.3096 33.7997C31.2511 33.8582 31.1926 33.8665 31.1508 33.8665C31.1007 33.8665 31.0589 33.8498 31.0255 33.8247L28.126 31.7608C27.7667 31.5018 27.2821 31.4851 26.8977 31.7107C25.8031 32.3624 24.6249 32.8471 23.3966 33.1646C22.962 33.2732 22.6362 33.6325 22.5693 34.067L21.976 37.5765C21.9593 37.6852 21.8674 37.7604 21.7588 37.7604H18.241C18.1323 37.7604 18.0404 37.6852 18.0237 37.5765L17.4388 34.067C17.3636 33.6242 17.0377 33.2732 16.6116 33.1646C15.4167 32.8554 14.2635 32.3792 13.1856 31.7608C13.0102 31.6605 12.8096 31.6104 12.6174 31.6104C12.3918 31.6104 12.1579 31.6773 11.9657 31.8193L9.0411 33.8999C8.99932 33.925 8.95754 33.9417 8.91576 33.9417C8.88233 33.9417 8.81549 33.9334 8.757 33.8749L6.26693 31.3848C6.19173 31.3096 6.18337 31.1926 6.24187 31.1007L8.29742 28.2179C8.55645 27.8503 8.57317 27.3656 8.34756 26.9812C7.6958 25.895 7.19444 24.7168 6.87692 23.4885C6.75993 23.0623 6.40898 22.7364 5.97448 22.6612L2.43993 22.0596C2.3313 22.0429 2.2561 21.951 2.2561 21.8424V18.3245C2.2561 18.2159 2.3313 18.124 2.43993 18.1073L5.92434 17.5223C6.36721 17.4471 6.72651 17.1213 6.83514 16.6868C7.1443 15.4584 7.62059 14.2719 8.264 13.1773C8.48961 12.7929 8.46454 12.3166 8.20551 11.9573L6.12488 9.03274C6.06639 8.94918 6.07475 8.82384 6.14995 8.74864L8.64001 6.25858C8.6985 6.20009 8.757 6.19173 8.79878 6.19173C8.84891 6.19173 8.89069 6.20844 8.92411 6.23351L11.8069 8.28906C12.1746 8.5481 12.6592 8.56481 13.0436 8.3392C14.1298 7.68744 15.308 7.18608 16.5363 6.86856C16.9625 6.75158 17.2884 6.40063 17.3636 5.96612L17.9652 2.43157C17.9819 2.32294 18.0738 2.24774 18.1825 2.24774H21.7003C21.8089 2.24774 21.9008 2.32294 21.9176 2.43157L22.5025 5.91599C22.5777 6.35885 22.9036 6.71815 23.3381 6.82678C24.5998 7.1443 25.8031 7.6373 26.9227 8.29742C27.3071 8.52303 27.7834 8.50632 28.1511 8.24728L31.0339 6.17502C31.0756 6.14995 31.1174 6.13324 31.1592 6.13324C31.1926 6.13324 31.2595 6.14159 31.318 6.20009L33.808 8.69015C33.8832 8.76535 33.8916 8.88233 33.8331 8.97425L31.7692 11.8737C31.5101 12.2331 31.4934 12.7177 31.719 13.1021C32.3708 14.1967 32.8554 15.3749 33.173 16.6032C33.2816 17.0377 33.6409 17.3636 34.0754 17.4304L37.5849 18.0237C37.6935 18.0404 37.7687 18.1323 37.7687 18.241V21.7588H37.7604Z" />
      <path d="M20.004 11.363C15.2411 11.363 11.3723 15.2318 11.3723 19.9947C11.3723 24.7576 15.2411 28.6264 20.004 28.6264C24.7668 28.6264 28.6356 24.7576 28.6356 19.9947C28.6356 15.2318 24.7668 11.363 20.004 11.363ZM20.004 26.3703C16.4861 26.3703 13.6284 23.5125 13.6284 19.9947C13.6284 16.4769 16.4861 13.6191 20.004 13.6191C23.5218 13.6191 26.3795 16.4769 26.3795 19.9947C26.3795 23.5125 23.5218 26.3703 20.004 26.3703Z"/>
    </g>
  </symbol>

  <!--!____2____BANNER____2____-->

  <symbol id="b2-01-cross" viewBox="0 0 12 12">
    <g>
      <path d="M7.72603 6.19178C7.61644 6.08219 7.61644 5.91781 7.72603 5.80822L11.8356 1.69863C11.9452 1.58904 12 1.42466 12 1.31507C12 1.20548 11.9452 1.0411 11.8356 0.931507L11.0685 0.164384C10.9589 0.0547945 10.7945 0 10.6849 0C10.5205 0 10.411 0.0547945 10.3014 0.164384L6.19178 4.27397C6.08219 4.38356 5.91781 4.38356 5.80822 4.27397L1.69863 0.164384C1.58904 0.0547945 1.42466 0 1.31507 0C1.20548 0 1.0411 0.0547945 0.931507 0.164384L0.164384 0.931507C0.0547945 1.0411 0 1.20548 0 1.31507C0 1.42466 0.0547945 1.58904 0.164384 1.69863L4.27397 5.80822C4.38356 5.91781 4.38356 6.08219 4.27397 6.19178L0.164384 10.3014C0.0547945 10.411 0 10.5753 0 10.6849C0 10.7945 0.0547945 10.9589 0.164384 11.0685L0.931507 11.8356C1.0411 11.9452 1.20548 12 1.31507 12C1.42466 12 1.58904 11.9452 1.69863 11.8356L5.80822 7.72603C5.91781 7.61644 6.08219 7.61644 6.19178 7.72603L10.3014 11.8356C10.411 11.9452 10.5753 12 10.6849 12C10.7945 12 10.9589 11.9452 11.0685 11.8356L11.8356 11.0685C11.9452 10.9589 12 10.7945 12 10.6849C12 10.5753 11.9452 10.411 11.8356 10.3014L7.72603 6.19178Z"/>
    </g>
  </symbol>

  <!--todo____2____ORDER____2____-->
  <!--!_______1____HERO____1____-->

  <symbol id="p2-b1-01-list" viewBox="0 0 22 22">
    <g>
      <path d="M14.3792 0H3V21.0635H19.4997V5.12053L14.3792 0ZM14.5849 1.19851L18.3012 4.91481H14.5849V1.19851ZM3.70212 20.3614V0.702116H13.8828V5.61693H18.7976V20.3614H3.70212Z"/>
      <path d="M15.6382 7.37207H10.0212C9.82744 7.37207 9.67017 7.52899 9.67017 7.72313C9.67017 7.91726 9.82744 8.07419 10.0212 8.07419H15.6382C15.8319 8.07419 15.9892 7.91726 15.9892 7.72313C15.9892 7.52899 15.8319 7.37207 15.6382 7.37207Z"/>
      <path d="M8.74869 6.39638L7.23879 7.60437L6.75889 7.12447C6.62163 6.98721 6.39976 6.98721 6.26249 7.12447C6.12523 7.26174 6.12523 7.48361 6.26249 7.62087L6.96461 8.32299C7.03271 8.39109 7.12259 8.42585 7.21281 8.42585C7.29004 8.42585 7.36762 8.40057 7.43187 8.34896L9.18716 6.94473C9.33881 6.82327 9.36304 6.60245 9.24192 6.45115C9.12116 6.29949 8.89999 6.27527 8.74869 6.39638Z"/>
      <path d="M15.6382 11.2344H10.0212C9.82744 11.2344 9.67017 11.3913 9.67017 11.5854C9.67017 11.7796 9.82744 11.9365 10.0212 11.9365H15.6382C15.8319 11.9365 15.9892 11.7796 15.9892 11.5854C15.9892 11.3913 15.8319 11.2344 15.6382 11.2344Z"/>
      <path d="M8.74869 10.2577L7.23879 11.4657L6.75889 10.9858C6.62163 10.8485 6.39976 10.8485 6.26249 10.9858C6.12523 11.1231 6.12523 11.3449 6.26249 11.4822L6.96461 12.1843C7.03271 12.2524 7.12259 12.2872 7.21281 12.2872C7.29004 12.2872 7.36762 12.2619 7.43187 12.2103L9.18716 10.8061C9.33881 10.6846 9.36304 10.4638 9.24192 10.3125C9.12116 10.1608 8.89999 10.1366 8.74869 10.2577Z"/>
      <path d="M15.6382 15.0947H10.0212C9.82744 15.0947 9.67017 15.2516 9.67017 15.4458C9.67017 15.6399 9.82744 15.7968 10.0212 15.7968H15.6382C15.8319 15.7968 15.9892 15.6399 15.9892 15.4458C15.9892 15.2516 15.8319 15.0947 15.6382 15.0947Z"/>
      <path d="M8.74869 14.119L7.23879 15.327L6.75889 14.8471C6.62163 14.7099 6.39976 14.7099 6.26249 14.8471C6.12523 14.9844 6.12523 15.2063 6.26249 15.3435L6.96461 16.0456C7.03271 16.1137 7.12259 16.1485 7.21281 16.1485C7.29004 16.1485 7.36762 16.1232 7.43187 16.0716L9.18716 14.6674C9.33881 14.5459 9.36304 14.3251 9.24192 14.1738C9.12116 14.0221 8.89999 13.9979 8.74869 14.119Z"/>
    </g>
  </symbol>

  <symbol id="p2-b1-02-engineer" viewBox="0 0 22 22">
    <g>
      <path d="M20.9 18.26C18.7116 17.0995 17.033 16.4487 15.5387 16.1993L15.6933 15.9866C15.7667 15.9133 15.8033 15.8033 15.7667 15.6933L15.423 14.3188C16.3318 13.0341 16.8666 11.4279 16.8666 9.89999V8.43332H17.2333H17.9666C18.1866 8.43332 18.3333 8.28667 18.3333 8.06667C18.3333 7.84667 18.1866 7.70002 17.9666 7.70002H17.6V7.33338C17.6 4.43672 15.6933 1.98006 12.8333 1.17338V1.09998C12.8333 0.513297 12.3567 0 11.7333 0H10.2666C9.67995 0 9.16666 0.476645 9.16666 1.09998V1.17333C6.30665 1.98002 4.39998 4.43668 4.39998 7.33333V7.69998H4.03334C3.81334 7.69998 3.66669 7.84663 3.66669 8.06663C3.66669 8.28662 3.81334 8.43327 4.03334 8.43327H4.76667H5.13332V9.89995C5.13332 11.4278 5.66811 13.034 6.57693 14.3188L6.2333 15.6933C6.2333 15.7667 6.2333 15.9133 6.30665 15.9866L6.4613 16.1993C4.96701 16.4488 3.28838 17.0995 1.09998 18.26C0.403342 18.59 0 19.2866 0 20.0566V21.6333C0 21.8533 0.14665 22 0.366647 22H9.16666H9.31331H12.6866H12.8333H21.6333C21.8533 22 22 21.8533 22 21.6333V20.0566C22 19.3233 21.56 18.6267 20.9 18.26ZM10.7801 17.9206L11.0021 17.4212L11.5501 18.6269L11.9085 19.4333H10.12L10.7801 17.9206ZM9.84132 20.1666H12.1559L12.3654 21.2666H9.62133L9.84132 20.1666ZM14.85 15.0333L14.9966 15.6933L14.6221 16.2076C14.5982 16.2271 14.5761 16.2508 14.5566 16.2799L13.0315 18.3917L12.5476 19.0562L11.5591 16.832C12.7406 16.6879 13.7954 16.0948 14.6473 15.2423C14.6568 15.233 14.6662 15.2237 14.6756 15.2143C14.6779 15.212 14.6802 15.2097 14.6824 15.2074C14.7389 15.1507 14.7948 15.0928 14.85 15.0333ZM14.3723 2.68177C14.413 2.70885 14.4534 2.73638 14.4933 2.76442C14.9607 3.11272 15.3921 3.52074 15.73 3.95999L14.0433 4.28998L14.3723 2.68177ZM7.95667 4.28998L6.27 3.95999C6.6079 3.52069 7.03938 3.11268 7.50676 2.76438C7.54665 2.73638 7.58701 2.70885 7.62773 2.68177L7.95667 4.28998ZM5.13332 7.33333C5.13332 6.35763 5.37896 5.43715 5.82354 4.63274L8.36001 5.13336C8.39667 5.13336 8.39667 5.13336 8.43336 5.13336C8.54336 5.13336 8.61671 5.09671 8.72671 5.06002C8.8367 4.98667 8.87336 4.84002 8.8367 4.73002L8.33332 2.28017C8.59845 2.15261 8.87668 2.04305 9.1667 1.95298V2.93335C9.1667 3.15335 9.31335 3.3 9.53335 3.3C9.75334 3.3 9.89999 3.15335 9.89999 2.93335V1.46668V1.09998C9.89999 0.916639 10.0466 0.733338 10.2666 0.733338H11.7333C11.9167 0.733338 12.1 0.879988 12.1 1.09998V1.46663V2.93331C12.1 3.1533 12.2466 3.29995 12.4666 3.29995C12.6866 3.29995 12.8333 3.1533 12.8333 2.93331V1.95298C13.1329 2.04602 13.4202 2.15978 13.6932 2.2928L13.1999 4.69337C13.1999 4.80337 13.2366 4.95002 13.3099 5.02337C13.3833 5.09671 13.4566 5.13336 13.5666 5.13336C13.6032 5.13336 13.6032 5.13336 13.6399 5.13336L16.16 4.60281C16.615 5.4143 16.8666 6.34557 16.8666 7.33333V7.69998H16.4999H5.50001H5.13336V7.33333H5.13332ZM5.86666 8.43332H16.1333V9.89999C16.1333 11.4988 15.5848 12.9196 14.7614 13.9995L14.74 14.0066C14.7033 14.0433 14.6666 14.08 14.63 14.1166C14.4455 14.3626 14.2508 14.5869 14.0473 14.7891C13.184 15.5934 12.1542 16.0806 11.162 16.1289C11.112 16.1074 11.056 16.0966 11 16.0966C10.9436 16.0966 10.8928 16.1077 10.8473 16.1294C10.2399 16.1015 9.61823 15.909 9.02896 15.5796C8.43201 15.2367 7.87044 14.7422 7.36994 14.1166C7.33329 14.08 7.29659 14.0433 7.25994 14.0066L7.23854 13.9995C6.41508 12.9195 5.86661 11.4988 5.86661 9.89999V8.43332H5.86666ZM10.4409 16.8321L9.4524 19.0563L8.96846 18.3918L7.44333 16.28C7.43167 16.2684 7.41874 16.2568 7.40537 16.2454L7.00334 15.6933L7.14999 15.0334C7.1997 15.0869 7.25011 15.139 7.30101 15.1904C8.16177 16.0707 9.23533 16.6851 10.4409 16.8321ZM0.733338 20.0566C0.733338 19.58 0.989986 19.14 1.43002 18.92C3.76721 17.6783 5.44969 17.0551 6.94843 16.869L9.13651 19.8776L8.85872 21.2666H0.733338V20.0566ZM21.2667 21.2667H13.1413L12.8635 19.8777L15.0753 16.8365C16.5688 17.0619 18.2814 17.6845 20.57 18.8833C21.01 19.14 21.2667 19.58 21.2667 20.0567V21.2667V21.2667Z"/>
    </g>
  </symbol>

  <symbol id="p2-b1-03-complete" viewBox="0 0 22 22">

    <g>
      <path fill-rule="evenodd" clip-rule="evenodd" d="M14.7811 8.11206C14.5334 7.9322 14.1759 7.97323 13.9827 8.2037C13.8695 8.33764 13.5303 8.73896 13.3341 8.96889C12.9413 9.42895 12.4135 10.0419 11.8718 10.655C11.3289 11.2694 10.7769 11.8785 10.3344 12.3333C10.1126 12.5613 9.92632 12.7423 9.78665 12.8639C9.74292 12.8298 9.69226 12.7869 9.63498 12.7342C9.42115 12.5378 9.17404 12.2615 8.93272 11.9686C8.69398 11.6788 8.47201 11.3864 8.30903 11.1653C8.22777 11.0551 8.09241 10.8652 8.04685 10.8013C7.87637 10.5557 7.52414 10.4851 7.26026 10.6437C6.99636 10.8023 6.92062 11.13 7.09109 11.3756L7.09182 11.3766C7.10554 11.3961 7.1442 11.4511 7.16796 11.4845C7.21632 11.5523 7.28576 11.6488 7.37087 11.7642C7.54063 11.9945 7.77484 12.3032 8.02983 12.6127C8.28224 12.9191 8.56644 13.2402 8.83558 13.4875C8.96918 13.6103 9.11419 13.729 9.26194 13.8192C9.3901 13.8975 9.61133 14.0122 9.87493 13.999C10.0042 13.9925 10.1046 13.95 10.1535 13.9272C10.2113 13.9002 10.2628 13.8686 10.3046 13.8405C10.3886 13.7842 10.4768 13.7129 10.5628 13.638C10.7371 13.4863 10.9485 13.2795 11.1779 13.0438C11.6388 12.57 12.2045 11.9453 12.7506 11.3274C13.2977 10.7081 13.8299 10.0901 14.2249 9.62738C14.4222 9.39627 14.7641 8.99167 14.8788 8.85594L14.8794 8.85529L14.8796 8.85503C15.0729 8.62455 15.0288 8.29192 14.7811 8.11206Z"/>
      <path fill-rule="evenodd" clip-rule="evenodd" d="M11 21.1852C16.6251 21.1852 21.1852 16.6251 21.1852 11C21.1852 5.37488 16.6251 0.814815 11 0.814815C5.37488 0.814815 0.814815 5.37488 0.814815 11C0.814815 16.6251 5.37488 21.1852 11 21.1852ZM11 22C17.0751 22 22 17.0751 22 11C22 4.92487 17.0751 0 11 0C4.92487 0 0 4.92487 0 11C0 17.0751 4.92487 22 11 22Z"/>
    </g>
  </symbol>


  <!--todo____3____FEEDBACK____3____-->
  <!--!_______1____HERO____1____-->

  <symbol id="p3-b1-01-star" viewBox="0 0 22 22">
    <g>
      <path d="M9.94889 2.92705C10.2482 2.00574 11.5517 2.00574 11.851 2.92705L13.0777 6.70253C13.2116 7.11456 13.5956 7.39352 14.0288 7.39352H17.9986C18.9673 7.39352 19.3701 8.63313 18.5864 9.20254L15.3747 11.5359C15.0243 11.7906 14.8776 12.2419 15.0115 12.6539L16.2382 16.4294C16.5375 17.3507 15.4831 18.1169 14.6994 17.5475L11.4877 15.2141C11.1372 14.9594 10.6627 14.9594 10.3122 15.2141L7.10055 17.5475C6.31683 18.1169 5.26235 17.3507 5.56171 16.4294L6.78843 12.6539C6.92231 12.2419 6.77565 11.7906 6.42516 11.5359L3.21355 9.20254C2.42983 8.63313 2.83261 7.39352 3.80133 7.39352H7.77111C8.20433 7.39352 8.58829 7.11456 8.72217 6.70254L9.94889 2.92705Z" fill="#FED235"/>
    </g>
  </symbol>

  <symbol id="p3-b1-02-half-star" viewBox="0 0 22 22">
    <g>
      <path d="M10.349 2.92705C10.6484 2.00574 11.9518 2.00574 12.2512 2.92705L13.4779 6.70253C13.6118 7.11456 13.9957 7.39352 14.4289 7.39352H18.3987C19.3674 7.39352 19.7702 8.63313 18.9865 9.20254L15.7749 11.5359C15.4244 11.7906 15.2777 12.2419 15.4116 12.6539L16.6383 16.4294C16.9377 17.3507 15.8832 18.1169 15.0995 17.5475L11.8879 15.2141C11.5374 14.9594 11.0628 14.9594 10.7123 15.2141L7.50069 17.5475C6.71698 18.1169 5.6625 17.3507 5.96185 16.4294L7.18858 12.6539C7.32245 12.2419 7.1758 11.7906 6.82531 11.5359L3.61369 9.20254C2.82998 8.63313 3.23275 7.39352 4.20148 7.39352H8.17125C8.60448 7.39352 8.98844 7.11456 9.12231 6.70254L10.349 2.92705Z" fill="#FED235"/>
      <path fill-rule="evenodd" clip-rule="evenodd" d="M11.3 15.0234C11.5064 15.0233 11.7127 15.087 11.888 15.2143L15.0996 17.5477C15.8833 18.1171 16.9378 17.351 16.6385 16.4297L15.4117 12.6542C15.2779 12.2422 15.4245 11.7908 15.775 11.5362L18.9866 9.2028C19.7703 8.63339 19.3676 7.39378 18.3988 7.39378H14.4291C13.9958 7.39378 13.6119 7.11482 13.478 6.70279L12.2513 2.92731C12.1016 2.46659 11.7008 2.23626 11.3 2.23633V15.0234Z" fill="#C6C6C6"/>
    </g>
  </symbol>


  <!--todo____4____RESPONSE____4____-->
  <!--!_______1____HERO____1____-->

  <symbol id="p4-b1-01-comlete" viewBox="0 0 15 11">
    <g>
     <path d="M1 5.5L5 9L13 1" fill="none" stroke="white" stroke-width="2"/>
    </g>
  </symbol>

  <symbol id="p4-b1-02-mail" viewBox="0 0 15 11">
    <g>
      <path d="M13.5937 0H1.40626C0.6308 0 0 0.616782 0 1.37501V9.62499C0 10.3832 0.6308 11 1.40626 11H13.5937C14.3692 11 15 10.3832 15 9.62499V1.37501C15 0.616782 14.3692 0 13.5937 0V0ZM13.5937 0.916662C13.6574 0.916662 13.718 0.929581 13.7734 0.952145L7.5 6.26851L1.22656 0.952145C1.28195 0.929612 1.34254 0.916662 1.40623 0.916662H13.5937ZM13.5937 10.0833H1.40626C1.14763 10.0833 0.937496 9.87788 0.937496 9.62496V1.92061L7.19283 7.22142C7.2812 7.29616 7.3906 7.33332 7.5 7.33332C7.6094 7.33332 7.7188 7.29619 7.80717 7.22142L14.0625 1.92061V9.62499C14.0625 9.87788 13.8524 10.0833 13.5937 10.0833V10.0833Z"/>
    </g>
  </symbol>

  <symbol id="p4-b1-03-call" viewBox="0 0 19 19">
    <g>
      <path fill-rule="evenodd" clip-rule="evenodd" d="M11.4672 17.4352C11.507 17.3552 11.5524 17.2158 11.5719 17.1292C11.6857 16.5929 11.4558 14.5528 11.1851 13.6901C11.0308 13.1971 10.8475 12.9009 10.6168 12.7762C10.3709 12.6399 10.1796 12.6299 9.4539 12.7152C9.16228 12.7486 8.87754 12.7685 8.81839 12.7572C8.66961 12.7316 8.44896 12.6102 8.32825 12.4895C8.04999 12.2078 7.72674 11.515 7.57905 10.8814C7.46376 10.3897 7.41186 9.66372 7.44705 9.03162C7.48674 8.28772 7.59262 7.70239 7.79324 7.12281C8.04976 6.37675 8.29399 6.00845 8.62039 5.88656C8.702 5.85527 8.7954 5.82894 8.82932 5.82516C8.8615 5.82318 9.15087 5.84903 9.46894 5.87966C10.0881 5.94455 10.2068 5.93656 10.4604 5.81036C10.7821 5.64958 11.0067 5.38143 11.1307 5.00928C11.2233 4.72549 11.3842 4.06506 11.4683 3.61881C11.5775 3.03004 11.7266 1.6872 11.7085 1.46716C11.6719 1.07464 11.4277 0.768889 11.0044 0.585182C10.5576 0.391588 9.46464 0.284084 8.86421 0.371457C8.32146 0.451465 8.01192 0.583332 7.70764 0.860766C7.45639 1.08856 7.37727 1.20791 7.19507 1.63824C5.7637 5.01114 5.29432 8.37766 5.76174 11.8906C6.00568 13.7256 6.47806 15.4094 7.1823 16.9417C7.59327 17.8351 7.86465 18.1305 8.39674 18.2657C8.62313 18.3209 9.3363 18.3052 9.79597 18.2345C10.5593 18.115 10.882 18.0305 11.078 17.9015C11.2127 17.8137 11.3876 17.602 11.4672 17.4352Z" fill="white"/>
    </g>
  </symbol>

  <symbol id="p4-b1-04-message" viewBox="0 0 16 16">
    <g>
      <path fill-rule="evenodd" clip-rule="evenodd" d="M7.63868 0.630134C3.71467 0.815463 0.614772 4.05905 0.626683 7.95803C0.630313 9.14659 0.91938 10.2668 1.42885 11.2564L1.52891 11.4508L0.734963 15.2735L4.51436 14.3853L4.71745 14.4857C5.6735 14.9581 6.74729 15.231 7.88513 15.2483C11.898 15.3091 15.2446 12.1469 15.3697 8.16967C15.5038 3.90357 11.9549 0.426237 7.63868 0.630134ZM3.71346e-05 7.95991C-0.0128861 3.72954 3.34886 0.210451 7.60888 0.00925298C12.2908 -0.21192 16.1415 3.56114 15.996 8.18904C15.8603 12.5064 12.2297 15.9357 7.87556 15.8698C6.64175 15.8511 5.47596 15.5549 4.43805 15.0421L0.398151 15.9915C0.176604 16.0435 -0.0245364 15.8498 0.0214088 15.6286L0.870758 11.5391C0.317564 10.4645 0.00397198 9.24837 3.71346e-05 7.95991Z"/>
      <path fill-rule="evenodd" clip-rule="evenodd" d="M0.626683 7.95803C0.614772 4.05905 3.71467 0.815463 7.63868 0.630134C11.9549 0.426237 15.5038 3.90357 15.3697 8.16967C15.2446 12.1469 11.898 15.3091 7.88513 15.2483C6.74729 15.231 5.6735 14.9581 4.71745 14.4857L4.51436 14.3853L0.734963 15.2735L1.52891 11.4508L1.42885 11.2564C0.91938 10.2668 0.630313 9.14659 0.626683 7.95803ZM4.93268 14.0571L4.57317 13.8795L1.36051 14.6345L2.03583 11.3827L1.85871 11.0387C1.36147 10.0727 1.10931 9.02674 1.10931 7.93534C1.10931 6.11081 1.8269 4.39242 3.12753 3.10226C4.4176 1.82261 6.17571 1.1003 8.00013 1.1003C9.83948 1.10034 11.5718 1.81213 12.8725 3.1022C14.1731 4.39233 14.8907 6.11073 14.8907 7.93521C14.8907 9.74491 14.1625 11.4888 12.8724 12.7684C11.5718 14.0586 9.83936 14.7703 8.00001 14.7703C6.92411 14.7703 5.89041 14.5303 4.93268 14.0571Z"/>
    </g>
  </symbol>

  <!--todo____5____SUPPORT____5____-->
  <!--!_______1____HERO____1____-->

  <symbol id="p5-b1-01-arrowDown" viewBox="0 0 9 6">
    <g>
      <path d="M7.74504 4.56589e-08L9 1.30838L4.50001 6L-6.78824e-07 1.30841L1.25496 2.71922e-05L4.49999 3.38321L7.74504 4.56589e-08Z" fill="#DBDBDB"/>
    </g>
  </symbol>

  <!--todo____6____MASTER LK____6____-->
  <!--!_______1____HERO____1____-->

  <symbol id="picture-cross" viewBox="0 0 23 23">
    <g>
      <circle cx="11.5" cy="11.5" r="11.5" fill="#EB5757"/>
      <path d="M7.38449 16.8474L6.02656 15.4895L9.99826 11.5178L6.12866 7.6482L7.4968 6.28005L11.3664 10.1497L15.3381 6.17795L16.696 7.53589L12.7243 11.5076L16.5939 15.3772L15.2258 16.7453L11.3562 12.8757L7.38449 16.8474Z" fill="white"/>
    </g>
  </symbol>

  <symbol id="picture-size" viewBox="0 0 24 24">
    <g>
      <path d="M0.835849 7.25385C1.29757 7.25385 1.6717 6.87961 1.6717 6.418V2.85417L7.05512 8.23647C7.21839 8.39963 7.43225 8.48121 7.64612 8.48121C7.8601 8.48121 8.07407 8.39963 8.23723 8.23636C8.56366 7.90993 8.56366 7.38068 8.23712 7.05436L2.85348 1.67194H6.41809C6.8797 1.67194 7.25394 1.2977 7.25394 0.836093C7.25394 0.374481 6.87981 0.000244141 6.41809 0.000244141H0.835849C0.374126 0.000244141 0 0.374481 0 0.836093V6.41811C0 6.87961 0.374126 7.25385 0.835849 7.25385Z" fill="white"/>
      <path d="M23.1641 16.7462C22.7024 16.7462 22.3282 17.1205 22.3282 17.5821V21.146L16.7791 15.5969C16.4526 15.2704 15.9234 15.2704 15.597 15.5969C15.2706 15.9233 15.2706 16.4526 15.597 16.7789L21.146 22.3279H17.5823C17.1206 22.3279 16.7465 22.7021 16.7465 23.1637C16.7465 23.6254 17.1206 23.9996 17.5823 23.9996H23.1642C23.6259 23.9996 24.0001 23.6254 24.0001 23.1637V17.5821C23.9999 17.1205 23.6257 16.7462 23.1641 16.7462Z" fill="white"/>
      <path d="M7.22089 15.5969L1.67231 21.1459V17.5821C1.67231 17.1205 1.29818 16.7462 0.836459 16.7462C0.374736 16.7462 0.000610352 17.1205 0.000610352 17.5821V23.164C0.000610352 23.6256 0.374736 23.9998 0.836459 23.9998H6.41814C6.87976 23.9998 7.25399 23.6256 7.25399 23.164C7.25399 22.7024 6.87987 22.3281 6.41814 22.3281H2.85431L8.40301 16.7789C8.72943 16.4525 8.72943 15.9232 8.40289 15.5968C8.07669 15.2705 7.54743 15.2705 7.22089 15.5969Z" fill="white"/>
      <path d="M23.1641 0.000244141H17.5822C17.1205 0.000244141 16.7463 0.374481 16.7463 0.836093C16.7463 1.2977 17.1205 1.67194 17.5822 1.67194H21.1461L15.7635 7.05492C15.4371 7.38135 15.4371 7.9106 15.7636 8.23703C15.9268 8.40019 16.1407 8.48177 16.3546 8.48177C16.5685 8.48177 16.7824 8.40008 16.9457 8.23692L22.3283 2.85394V6.418C22.3283 6.87961 22.7025 7.25385 23.1642 7.25385C23.6259 7.25385 24 6.87961 24 6.418V0.836093C23.9999 0.37437 23.6257 0.000244141 23.1641 0.000244141Z" fill="white"/>
    </g>
    <defs>
      <clipPath id="clip0_1404_3872">
        <rect width="24" height="24" fill="white"/>
      </clipPath>
    </defs>
  </symbol>

  <symbol id="picture-more-chevron" viewBox="0 0 9 6">
    <g>
      <path d="M1.25496 0L0 1.30839L4.49999 6L9 1.30841L7.74504 2.69104e-05L4.50001 3.38321L1.25496 0Z"/>
    </g>
  </symbol>

  <!--todo____0____MODAL____0____-->
  <!--!_______0____MODAL____0____-->

  <symbol id="attach-file-txt" viewBox="0 0 49 44">
    <g>
      <path fill-rule="evenodd" clip-rule="evenodd" d="M49 0H17L9 8V44H49V0Z" fill="#234C9E"/>
      <rect y="21" width="41" height="19" fill="#1C3A80"/>
      <path d="M20.3745 32.8936C20.5177 33.0368 20.5894 33.2051 20.5894 33.3984C20.5894 33.5882 20.5177 33.7547 20.3745 33.8979C20.2313 34.0376 20.063 34.1074 19.8696 34.1074C19.6799 34.1074 19.5133 34.0376 19.3701 33.8979C19.2269 33.7547 19.1553 33.5882 19.1553 33.3984C19.1553 33.2051 19.2269 33.0368 19.3701 32.8936C19.5133 32.7503 19.6799 32.6787 19.8696 32.6787C20.063 32.6787 20.2313 32.7503 20.3745 32.8936ZM22.5176 28.0596V26.9585H23.5059V28.7202H24.6069V29.7085H23.5059V32.4478C23.5059 32.6447 23.5685 32.8058 23.6938 32.9312C23.8192 33.0565 23.9767 33.1191 24.1665 33.1191C24.2489 33.1191 24.3348 33.1102 24.4243 33.0923C24.5174 33.0744 24.589 33.0547 24.6392 33.0332L24.7197 33.0117V34C24.5013 34.0716 24.2435 34.1074 23.9463 34.1074C22.9186 34.1074 22.4066 33.5578 22.4102 32.4585V29.7085H21.4165V28.7202H21.9697C22.335 28.7202 22.5176 28.5 22.5176 28.0596ZM28.6782 31.25L30.6548 34H29.3926L28.0176 32.0771L26.6426 34H25.375L27.3569 31.25L25.5415 28.7202H26.8037L28.0176 30.4229L29.2261 28.7202H30.4937L28.6782 31.25ZM32.1963 28.0596V26.9585H33.1846V28.7202H34.2856V29.7085H33.1846V32.4478C33.1846 32.6447 33.2472 32.8058 33.3726 32.9312C33.4979 33.0565 33.6554 33.1191 33.8452 33.1191C33.9276 33.1191 34.0135 33.1102 34.103 33.0923C34.1961 33.0744 34.2677 33.0547 34.3179 33.0332L34.3984 33.0117V34C34.18 34.0716 33.9222 34.1074 33.625 34.1074C32.5973 34.1074 32.0853 33.5578 32.0889 32.4585V29.7085H31.0952V28.7202H31.6484C32.0137 28.7202 32.1963 28.5 32.1963 28.0596Z" fill="white"/>
    </g>
  </symbol>

  <symbol id="attach-file-png" viewBox="0 0 49 44">
    <g>
      <path fill-rule="evenodd" clip-rule="evenodd" d="M49 0H17L9 8V44H49V0Z" fill="#234C9E"/>
      <rect y="21" width="41" height="19" fill="#1C3A80"/>
      <path d="M14.8745 32.8936C15.0177 33.0368 15.0894 33.2051 15.0894 33.3984C15.0894 33.5882 15.0177 33.7547 14.8745 33.8979C14.7313 34.0376 14.563 34.1074 14.3696 34.1074C14.1799 34.1074 14.0133 34.0376 13.8701 33.8979C13.7269 33.7547 13.6553 33.5882 13.6553 33.3984C13.6553 33.2051 13.7269 33.0368 13.8701 32.8936C14.0133 32.7503 14.1799 32.6787 14.3696 32.6787C14.563 32.6787 14.7313 32.7503 14.8745 32.8936ZM19.1606 34.1074C18.9637 34.1074 18.7721 34.0841 18.5859 34.0376C18.3997 33.991 18.2404 33.9338 18.1079 33.8657C17.9754 33.7941 17.8573 33.7225 17.7534 33.6509C17.6532 33.5757 17.5798 33.5166 17.5332 33.4736L17.458 33.3931V36.3096H16.3569V28.7202H17.458V29.3271C17.5081 29.277 17.578 29.2108 17.6675 29.1284C17.7606 29.0461 17.9557 28.9386 18.2529 28.8062C18.5501 28.6737 18.8527 28.6074 19.1606 28.6074C19.8589 28.6074 20.464 28.876 20.9761 29.4131C21.4917 29.9466 21.7495 30.5947 21.7495 31.3574C21.7495 32.1201 21.4917 32.77 20.9761 33.3071C20.464 33.8407 19.8589 34.1074 19.1606 34.1074ZM20.165 30.1167C19.8428 29.7729 19.4722 29.6011 19.0532 29.6011C18.6343 29.6011 18.2637 29.7729 17.9414 30.1167C17.6191 30.4604 17.458 30.8758 17.458 31.3628C17.458 31.8462 17.6191 32.2598 17.9414 32.6035C18.2637 32.9473 18.6343 33.1191 19.0532 33.1191C19.4722 33.1191 19.8428 32.9473 20.165 32.6035C20.4873 32.2598 20.6484 31.8462 20.6484 31.3628C20.6484 30.8758 20.4873 30.4604 20.165 30.1167ZM24.0537 28.7202V29.2681L24.1235 29.1982C24.1558 29.166 24.2238 29.1141 24.3276 29.0425C24.4315 28.9673 24.5407 28.901 24.6553 28.8438C24.7734 28.7829 24.922 28.7292 25.1011 28.6826C25.2837 28.6325 25.4663 28.6074 25.6489 28.6074C26.2863 28.6074 26.8019 28.8169 27.1958 29.2358C27.5933 29.6548 27.792 30.217 27.792 30.9224V34H26.6909V30.9224C26.6909 30.5428 26.5692 30.2277 26.3257 29.9771C26.0858 29.7264 25.7868 29.6011 25.4287 29.6011C25.0098 29.6011 24.675 29.7371 24.4243 30.0093C24.1772 30.2778 24.0537 30.6556 24.0537 31.1426V34H22.9526V28.7202H24.0537ZM33.0718 33.6831V33.2319L33.002 33.3018C32.9697 33.334 32.9017 33.3877 32.7979 33.4629C32.6976 33.5345 32.5884 33.6007 32.4702 33.6616C32.3521 33.7189 32.2035 33.7726 32.0244 33.8228C31.8454 33.8693 31.6628 33.8926 31.4766 33.8926C30.8105 33.8926 30.2323 33.6366 29.7417 33.1245C29.2511 32.6089 29.0059 31.984 29.0059 31.25C29.0059 30.516 29.2511 29.8929 29.7417 29.3809C30.2323 28.8652 30.8105 28.6074 31.4766 28.6074C31.7702 28.6074 32.0495 28.6629 32.3145 28.7739C32.5794 28.8849 32.771 28.9959 32.8892 29.1069L33.0718 29.2681V28.7202H34.1729V33.6724C34.1729 34.4136 33.9186 35.0384 33.4102 35.5469C32.9017 36.0553 32.2769 36.3096 31.5356 36.3096C31.2349 36.3096 30.9484 36.2702 30.6763 36.1914C30.4041 36.1162 30.1803 36.0249 30.0049 35.9175C29.8294 35.8136 29.6755 35.708 29.543 35.6006C29.4105 35.4932 29.3156 35.4001 29.2583 35.3213L29.167 35.2085L29.8867 34.4941C29.901 34.5156 29.9243 34.5443 29.9565 34.5801C29.9888 34.6195 30.0568 34.6857 30.1606 34.7788C30.2681 34.8755 30.3809 34.9596 30.499 35.0312C30.6172 35.1064 30.7694 35.1727 30.9556 35.23C31.1418 35.2909 31.3351 35.3213 31.5356 35.3213C31.9832 35.3213 32.3503 35.1691 32.6367 34.8647C32.9268 34.5604 33.0718 34.1665 33.0718 33.6831ZM30.5474 30.0791C30.2502 30.3978 30.1016 30.7881 30.1016 31.25C30.1016 31.7119 30.2502 32.1022 30.5474 32.4209C30.8446 32.7396 31.1919 32.8989 31.5894 32.8989C31.9868 32.8989 32.3324 32.7396 32.626 32.4209C32.9232 32.1022 33.0718 31.7119 33.0718 31.25C33.0718 30.7881 32.9232 30.3978 32.626 30.0791C32.3324 29.7604 31.9868 29.6011 31.5894 29.6011C31.1919 29.6011 30.8446 29.7604 30.5474 30.0791Z" fill="white"/>
    </g>
  </symbol>


</svg>

